%TF.GenerationSoftware,KiCad,Pcbnew,4.0.2+e4-6225~38~ubuntu14.04.1-stable*%
%TF.CreationDate,2016-06-25T18:59:24+02:00*%
%TF.ProjectId,hclock,68636C6F636B2E6B696361645F706362,0.1*%
%TF.FileFunction,Legend,Bot*%
%FSLAX46Y46*%
G04 Gerber Fmt 4.6, Leading zero omitted, Abs format (unit mm)*
G04 Created by KiCad (PCBNEW 4.0.2+e4-6225~38~ubuntu14.04.1-stable) date sam. 25 juin 2016 18:59:24 CEST*
%MOMM*%
G01*
G04 APERTURE LIST*
%ADD10C,0.100000*%
%ADD11C,0.300000*%
%ADD12C,0.150000*%
G04 APERTURE END LIST*
D10*
D11*
X170811907Y-70119762D02*
X170811907Y-68119762D01*
X169954764Y-70119762D02*
X169954764Y-69072143D01*
X170050002Y-68881667D01*
X170240478Y-68786429D01*
X170526192Y-68786429D01*
X170716668Y-68881667D01*
X170811907Y-68976905D01*
X169288097Y-68786429D02*
X168526192Y-68786429D01*
X169002383Y-68119762D02*
X169002383Y-69834048D01*
X168907144Y-70024524D01*
X168716668Y-70119762D01*
X168526192Y-70119762D01*
X168145240Y-68786429D02*
X167383335Y-68786429D01*
X167859526Y-68119762D02*
X167859526Y-69834048D01*
X167764287Y-70024524D01*
X167573811Y-70119762D01*
X167383335Y-70119762D01*
X166716669Y-68786429D02*
X166716669Y-70786429D01*
X166716669Y-68881667D02*
X166526192Y-68786429D01*
X166145240Y-68786429D01*
X165954764Y-68881667D01*
X165859526Y-68976905D01*
X165764288Y-69167381D01*
X165764288Y-69738810D01*
X165859526Y-69929286D01*
X165954764Y-70024524D01*
X166145240Y-70119762D01*
X166526192Y-70119762D01*
X166716669Y-70024524D01*
X165002383Y-70024524D02*
X164811906Y-70119762D01*
X164430954Y-70119762D01*
X164240478Y-70024524D01*
X164145240Y-69834048D01*
X164145240Y-69738810D01*
X164240478Y-69548333D01*
X164430954Y-69453095D01*
X164716668Y-69453095D01*
X164907145Y-69357857D01*
X165002383Y-69167381D01*
X165002383Y-69072143D01*
X164907145Y-68881667D01*
X164716668Y-68786429D01*
X164430954Y-68786429D01*
X164240478Y-68881667D01*
X163288097Y-69929286D02*
X163192858Y-70024524D01*
X163288097Y-70119762D01*
X163383335Y-70024524D01*
X163288097Y-69929286D01*
X163288097Y-70119762D01*
X163288097Y-68881667D02*
X163192858Y-68976905D01*
X163288097Y-69072143D01*
X163383335Y-68976905D01*
X163288097Y-68881667D01*
X163288097Y-69072143D01*
X160907144Y-68024524D02*
X162621430Y-70595952D01*
X158811906Y-68024524D02*
X160526192Y-70595952D01*
X157288097Y-68786429D02*
X157288097Y-70405476D01*
X157383335Y-70595952D01*
X157478573Y-70691190D01*
X157669049Y-70786429D01*
X157954763Y-70786429D01*
X158145240Y-70691190D01*
X157288097Y-70024524D02*
X157478573Y-70119762D01*
X157859525Y-70119762D01*
X158050001Y-70024524D01*
X158145240Y-69929286D01*
X158240478Y-69738810D01*
X158240478Y-69167381D01*
X158145240Y-68976905D01*
X158050001Y-68881667D01*
X157859525Y-68786429D01*
X157478573Y-68786429D01*
X157288097Y-68881667D01*
X156335716Y-70119762D02*
X156335716Y-68786429D01*
X156335716Y-68119762D02*
X156430954Y-68215000D01*
X156335716Y-68310238D01*
X156240477Y-68215000D01*
X156335716Y-68119762D01*
X156335716Y-68310238D01*
X155669049Y-68786429D02*
X154907144Y-68786429D01*
X155383335Y-68119762D02*
X155383335Y-69834048D01*
X155288096Y-70024524D01*
X155097620Y-70119762D01*
X154907144Y-70119762D01*
X154240478Y-70119762D02*
X154240478Y-68119762D01*
X153383335Y-70119762D02*
X153383335Y-69072143D01*
X153478573Y-68881667D01*
X153669049Y-68786429D01*
X153954763Y-68786429D01*
X154145239Y-68881667D01*
X154240478Y-68976905D01*
X151573811Y-68786429D02*
X151573811Y-70119762D01*
X152430954Y-68786429D02*
X152430954Y-69834048D01*
X152335715Y-70024524D01*
X152145239Y-70119762D01*
X151859525Y-70119762D01*
X151669049Y-70024524D01*
X151573811Y-69929286D01*
X150621430Y-70119762D02*
X150621430Y-68119762D01*
X150621430Y-68881667D02*
X150430953Y-68786429D01*
X150050001Y-68786429D01*
X149859525Y-68881667D01*
X149764287Y-68976905D01*
X149669049Y-69167381D01*
X149669049Y-69738810D01*
X149764287Y-69929286D01*
X149859525Y-70024524D01*
X150050001Y-70119762D01*
X150430953Y-70119762D01*
X150621430Y-70024524D01*
X148811906Y-69929286D02*
X148716667Y-70024524D01*
X148811906Y-70119762D01*
X148907144Y-70024524D01*
X148811906Y-69929286D01*
X148811906Y-70119762D01*
X147002382Y-70024524D02*
X147192858Y-70119762D01*
X147573810Y-70119762D01*
X147764286Y-70024524D01*
X147859525Y-69929286D01*
X147954763Y-69738810D01*
X147954763Y-69167381D01*
X147859525Y-68976905D01*
X147764286Y-68881667D01*
X147573810Y-68786429D01*
X147192858Y-68786429D01*
X147002382Y-68881667D01*
X145859524Y-70119762D02*
X146050000Y-70024524D01*
X146145239Y-69929286D01*
X146240477Y-69738810D01*
X146240477Y-69167381D01*
X146145239Y-68976905D01*
X146050000Y-68881667D01*
X145859524Y-68786429D01*
X145573810Y-68786429D01*
X145383334Y-68881667D01*
X145288096Y-68976905D01*
X145192858Y-69167381D01*
X145192858Y-69738810D01*
X145288096Y-69929286D01*
X145383334Y-70024524D01*
X145573810Y-70119762D01*
X145859524Y-70119762D01*
X144335715Y-70119762D02*
X144335715Y-68786429D01*
X144335715Y-68976905D02*
X144240476Y-68881667D01*
X144050000Y-68786429D01*
X143764286Y-68786429D01*
X143573810Y-68881667D01*
X143478572Y-69072143D01*
X143478572Y-70119762D01*
X143478572Y-69072143D02*
X143383334Y-68881667D01*
X143192857Y-68786429D01*
X142907143Y-68786429D01*
X142716667Y-68881667D01*
X142621429Y-69072143D01*
X142621429Y-70119762D01*
X140240476Y-68024524D02*
X141954762Y-70595952D01*
X139859524Y-68786429D02*
X139097619Y-68786429D01*
X139573810Y-68119762D02*
X139573810Y-69834048D01*
X139478571Y-70024524D01*
X139288095Y-70119762D01*
X139097619Y-70119762D01*
X137669048Y-70024524D02*
X137859524Y-70119762D01*
X138240476Y-70119762D01*
X138430953Y-70024524D01*
X138526191Y-69834048D01*
X138526191Y-69072143D01*
X138430953Y-68881667D01*
X138240476Y-68786429D01*
X137859524Y-68786429D01*
X137669048Y-68881667D01*
X137573810Y-69072143D01*
X137573810Y-69262619D01*
X138526191Y-69453095D01*
X135859524Y-70024524D02*
X136050000Y-70119762D01*
X136430952Y-70119762D01*
X136621428Y-70024524D01*
X136716667Y-69929286D01*
X136811905Y-69738810D01*
X136811905Y-69167381D01*
X136716667Y-68976905D01*
X136621428Y-68881667D01*
X136430952Y-68786429D01*
X136050000Y-68786429D01*
X135859524Y-68881667D01*
X134145238Y-68786429D02*
X134145238Y-70119762D01*
X135002381Y-68786429D02*
X135002381Y-69834048D01*
X134907142Y-70024524D01*
X134716666Y-70119762D01*
X134430952Y-70119762D01*
X134240476Y-70024524D01*
X134145238Y-69929286D01*
X132907142Y-70119762D02*
X133097618Y-70024524D01*
X133192857Y-69834048D01*
X133192857Y-68119762D01*
X130716666Y-68024524D02*
X132430952Y-70595952D01*
X130050000Y-70119762D02*
X130050000Y-68119762D01*
X129192857Y-70119762D02*
X129192857Y-69072143D01*
X129288095Y-68881667D01*
X129478571Y-68786429D01*
X129764285Y-68786429D01*
X129954761Y-68881667D01*
X130050000Y-68976905D01*
X127383333Y-70024524D02*
X127573809Y-70119762D01*
X127954761Y-70119762D01*
X128145237Y-70024524D01*
X128240476Y-69929286D01*
X128335714Y-69738810D01*
X128335714Y-69167381D01*
X128240476Y-68976905D01*
X128145237Y-68881667D01*
X127954761Y-68786429D01*
X127573809Y-68786429D01*
X127383333Y-68881667D01*
X126240475Y-70119762D02*
X126430951Y-70024524D01*
X126526190Y-69834048D01*
X126526190Y-68119762D01*
X125192856Y-70119762D02*
X125383332Y-70024524D01*
X125478571Y-69929286D01*
X125573809Y-69738810D01*
X125573809Y-69167381D01*
X125478571Y-68976905D01*
X125383332Y-68881667D01*
X125192856Y-68786429D01*
X124907142Y-68786429D01*
X124716666Y-68881667D01*
X124621428Y-68976905D01*
X124526190Y-69167381D01*
X124526190Y-69738810D01*
X124621428Y-69929286D01*
X124716666Y-70024524D01*
X124907142Y-70119762D01*
X125192856Y-70119762D01*
X122811904Y-70024524D02*
X123002380Y-70119762D01*
X123383332Y-70119762D01*
X123573808Y-70024524D01*
X123669047Y-69929286D01*
X123764285Y-69738810D01*
X123764285Y-69167381D01*
X123669047Y-68976905D01*
X123573808Y-68881667D01*
X123383332Y-68786429D01*
X123002380Y-68786429D01*
X122811904Y-68881667D01*
X121954761Y-70119762D02*
X121954761Y-68119762D01*
X121764284Y-69357857D02*
X121192856Y-70119762D01*
X121192856Y-68786429D02*
X121954761Y-69548333D01*
D12*
X189483809Y-67397381D02*
X189150476Y-68397381D01*
X188817142Y-67397381D01*
X188293333Y-67397381D02*
X188198094Y-67397381D01*
X188102856Y-67445000D01*
X188055237Y-67492619D01*
X188007618Y-67587857D01*
X187959999Y-67778333D01*
X187959999Y-68016429D01*
X188007618Y-68206905D01*
X188055237Y-68302143D01*
X188102856Y-68349762D01*
X188198094Y-68397381D01*
X188293333Y-68397381D01*
X188388571Y-68349762D01*
X188436190Y-68302143D01*
X188483809Y-68206905D01*
X188531428Y-68016429D01*
X188531428Y-67778333D01*
X188483809Y-67587857D01*
X188436190Y-67492619D01*
X188388571Y-67445000D01*
X188293333Y-67397381D01*
X187531428Y-68302143D02*
X187483809Y-68349762D01*
X187531428Y-68397381D01*
X187579047Y-68349762D01*
X187531428Y-68302143D01*
X187531428Y-68397381D01*
X186531428Y-68397381D02*
X187102857Y-68397381D01*
X186817143Y-68397381D02*
X186817143Y-67397381D01*
X186912381Y-67540238D01*
X187007619Y-67635476D01*
X187102857Y-67683095D01*
X189483809Y-51522381D02*
X189150476Y-52522381D01*
X188817142Y-51522381D01*
X188293333Y-51522381D02*
X188198094Y-51522381D01*
X188102856Y-51570000D01*
X188055237Y-51617619D01*
X188007618Y-51712857D01*
X187959999Y-51903333D01*
X187959999Y-52141429D01*
X188007618Y-52331905D01*
X188055237Y-52427143D01*
X188102856Y-52474762D01*
X188198094Y-52522381D01*
X188293333Y-52522381D01*
X188388571Y-52474762D01*
X188436190Y-52427143D01*
X188483809Y-52331905D01*
X188531428Y-52141429D01*
X188531428Y-51903333D01*
X188483809Y-51712857D01*
X188436190Y-51617619D01*
X188388571Y-51570000D01*
X188293333Y-51522381D01*
X187531428Y-52427143D02*
X187483809Y-52474762D01*
X187531428Y-52522381D01*
X187579047Y-52474762D01*
X187531428Y-52427143D01*
X187531428Y-52522381D01*
X186531428Y-52522381D02*
X187102857Y-52522381D01*
X186817143Y-52522381D02*
X186817143Y-51522381D01*
X186912381Y-51665238D01*
X187007619Y-51760476D01*
X187102857Y-51808095D01*
M02*
