%TF.GenerationSoftware,KiCad,Pcbnew,4.0.2+e4-6225~38~ubuntu14.04.1-stable*%
%TF.CreationDate,2016-06-25T18:59:24+02:00*%
%TF.ProjectId,hclock,68636C6F636B2E6B696361645F706362,0.1*%
%TF.FileFunction,Copper,L2,Bot,Signal*%
%FSLAX46Y46*%
G04 Gerber Fmt 4.6, Leading zero omitted, Abs format (unit mm)*
G04 Created by KiCad (PCBNEW 4.0.2+e4-6225~38~ubuntu14.04.1-stable) date sam. 25 juin 2016 18:59:24 CEST*
%MOMM*%
G01*
G04 APERTURE LIST*
%ADD10C,0.100000*%
%ADD11R,1.651000X1.651000*%
%ADD12C,1.651000*%
%ADD13R,2.000000X2.000000*%
%ADD14C,2.000000*%
%ADD15R,1.727200X1.727200*%
%ADD16O,1.727200X1.727200*%
%ADD17R,2.032000X1.727200*%
%ADD18O,2.032000X1.727200*%
%ADD19C,1.397000*%
%ADD20C,1.524000*%
%ADD21C,2.499360*%
%ADD22C,1.501140*%
%ADD23R,1.727200X2.032000*%
%ADD24O,1.727200X2.032000*%
%ADD25C,0.600000*%
%ADD26C,0.250000*%
%ADD27C,0.500000*%
%ADD28C,0.254000*%
G04 APERTURE END LIST*
D10*
D11*
X107950000Y-60960000D03*
D12*
X105410000Y-60960000D03*
D13*
X114300000Y-93980000D03*
D14*
X114300000Y-91440000D03*
D15*
X105410000Y-130810000D03*
D16*
X105410000Y-128270000D03*
X107950000Y-130810000D03*
X107950000Y-128270000D03*
X110490000Y-130810000D03*
X110490000Y-128270000D03*
D15*
X116840000Y-128270000D03*
D16*
X119380000Y-128270000D03*
X116840000Y-130810000D03*
X119380000Y-130810000D03*
D17*
X95250000Y-121920000D03*
D18*
X95250000Y-119380000D03*
X95250000Y-116840000D03*
X95250000Y-114300000D03*
X95250000Y-111760000D03*
D15*
X116840000Y-59690000D03*
D16*
X119380000Y-59690000D03*
X116840000Y-62230000D03*
X119380000Y-62230000D03*
D17*
X95250000Y-105410000D03*
D18*
X95250000Y-102870000D03*
X95250000Y-100330000D03*
X95250000Y-97790000D03*
D19*
X161925000Y-45085000D03*
X161925000Y-40005000D03*
X169545000Y-45085000D03*
X169545000Y-40005000D03*
X149860000Y-45085000D03*
X149860000Y-40005000D03*
X157480000Y-45085000D03*
X157480000Y-40005000D03*
X137795000Y-45085000D03*
X137795000Y-40005000D03*
X145415000Y-45085000D03*
X145415000Y-40005000D03*
X125730000Y-45085000D03*
X125730000Y-40005000D03*
X133350000Y-45085000D03*
X133350000Y-40005000D03*
X113665000Y-45085000D03*
X113665000Y-40005000D03*
X121285000Y-45085000D03*
X121285000Y-40005000D03*
D20*
X107315000Y-46456600D03*
X107315000Y-44450000D03*
X107315000Y-42443400D03*
D19*
X186690000Y-119380000D03*
X181610000Y-119380000D03*
X186690000Y-111760000D03*
X181610000Y-111760000D03*
D21*
X182880000Y-90170000D03*
X182880000Y-80010000D03*
D22*
X156210000Y-128170940D03*
X156210000Y-123289060D03*
D13*
X137160000Y-93980000D03*
D14*
X139700000Y-93980000D03*
X142240000Y-93980000D03*
X144780000Y-93980000D03*
X147320000Y-93980000D03*
X149860000Y-93980000D03*
X152400000Y-93980000D03*
X149860000Y-78740000D03*
X147320000Y-78740000D03*
X144780000Y-78740000D03*
X142240000Y-78740000D03*
X139700000Y-78740000D03*
D23*
X150495000Y-60325000D03*
D24*
X147955000Y-60325000D03*
X145415000Y-60325000D03*
X142875000Y-60325000D03*
X140335000Y-60325000D03*
X137795000Y-60325000D03*
X135255000Y-60325000D03*
X132715000Y-60325000D03*
D23*
X150495000Y-50165000D03*
D24*
X147955000Y-50165000D03*
X145415000Y-50165000D03*
X142875000Y-50165000D03*
X140335000Y-50165000D03*
X137795000Y-50165000D03*
X135255000Y-50165000D03*
X132715000Y-50165000D03*
D25*
X144272000Y-98298000D03*
X124714000Y-100330000D03*
X132842000Y-100330000D03*
X144272000Y-96774000D03*
X169418000Y-80010000D03*
X175006000Y-74422000D03*
X149860000Y-73660000D03*
X162560000Y-73914000D03*
X124968000Y-78740000D03*
X127762000Y-78740000D03*
X137160000Y-73660000D03*
X152146000Y-90170000D03*
X153924000Y-91948000D03*
X156210000Y-87376000D03*
X160020000Y-90932000D03*
X160020000Y-100076000D03*
X144018000Y-100076000D03*
X122682000Y-62738000D03*
X122682000Y-65532000D03*
X160782000Y-130048000D03*
X160782000Y-117094000D03*
X113792000Y-122936000D03*
X113792000Y-115062000D03*
X100330000Y-119380000D03*
X104394000Y-118364000D03*
X134620000Y-118618000D03*
X143256000Y-118618000D03*
X109220000Y-65278000D03*
X104902000Y-107696000D03*
X143002000Y-131318000D03*
X126238000Y-107696000D03*
X126238000Y-116078000D03*
X159766000Y-87122000D03*
X162306000Y-89662000D03*
X159258000Y-109728000D03*
X141478000Y-129032000D03*
X142240000Y-132588000D03*
X163322000Y-81534000D03*
X166624000Y-80772000D03*
X166624000Y-84582000D03*
X161036000Y-108204000D03*
X138938000Y-117602000D03*
X121158000Y-119126000D03*
X162052000Y-106680000D03*
X143002000Y-106680000D03*
X136144000Y-106172000D03*
X128524000Y-101854000D03*
X128524000Y-99314000D03*
X132334000Y-77470000D03*
X139954000Y-74930000D03*
X133858000Y-105156000D03*
X124714000Y-127508000D03*
X125476000Y-101346000D03*
X125476000Y-99314000D03*
X123444000Y-128778000D03*
X122174000Y-130302000D03*
X130810000Y-114046000D03*
X130810000Y-123952000D03*
X111760000Y-52070000D03*
D26*
X144272000Y-98298000D02*
X142494000Y-96520000D01*
X142494000Y-96520000D02*
X140462000Y-96520000D01*
X140462000Y-96520000D02*
X139700000Y-95758000D01*
X139700000Y-95758000D02*
X139700000Y-93980000D01*
X132842000Y-100330000D02*
X124714000Y-100330000D01*
X147320000Y-93980000D02*
X147066000Y-93980000D01*
X147066000Y-93980000D02*
X144272000Y-96774000D01*
X175006000Y-74422000D02*
X169418000Y-80010000D01*
X147320000Y-76200000D02*
X147320000Y-78740000D01*
X149860000Y-73660000D02*
X147320000Y-76200000D01*
X157734000Y-78740000D02*
X149860000Y-78740000D01*
X162560000Y-73914000D02*
X157734000Y-78740000D01*
X127762000Y-78740000D02*
X124968000Y-78740000D01*
X139700000Y-76200000D02*
X139700000Y-78740000D01*
X137160000Y-73660000D02*
X139700000Y-76200000D01*
X153924000Y-91948000D02*
X152146000Y-90170000D01*
X156464000Y-87376000D02*
X156210000Y-87376000D01*
X160020000Y-90932000D02*
X156464000Y-87376000D01*
X144018000Y-100076000D02*
X160020000Y-100076000D01*
D27*
X122682000Y-65532000D02*
X122682000Y-62738000D01*
X160782000Y-117094000D02*
X160782000Y-130048000D01*
X113792000Y-115062000D02*
X113792000Y-122936000D01*
D26*
X103378000Y-119380000D02*
X100330000Y-119380000D01*
X104394000Y-118364000D02*
X103378000Y-119380000D01*
X143256000Y-118618000D02*
X134620000Y-118618000D01*
D27*
X114808000Y-59690000D02*
X116840000Y-59690000D01*
X109220000Y-65278000D02*
X114808000Y-59690000D01*
X105410000Y-128270000D02*
X105410000Y-108204000D01*
X105410000Y-108204000D02*
X104902000Y-107696000D01*
D26*
X119380000Y-130810000D02*
X119380000Y-128270000D01*
X120142000Y-131572000D02*
X119380000Y-130810000D01*
X142748000Y-131572000D02*
X120142000Y-131572000D01*
X143002000Y-131318000D02*
X142748000Y-131572000D01*
X126238000Y-116078000D02*
X126238000Y-107696000D01*
X162306000Y-89662000D02*
X159766000Y-87122000D01*
X152400000Y-116586000D02*
X159258000Y-109728000D01*
X152400000Y-128524000D02*
X152400000Y-116586000D01*
X152908000Y-129032000D02*
X152400000Y-128524000D01*
X141478000Y-129032000D02*
X152908000Y-129032000D01*
X163576000Y-132588000D02*
X142240000Y-132588000D01*
X163830000Y-132334000D02*
X163576000Y-132588000D01*
X163830000Y-82042000D02*
X163830000Y-132334000D01*
X163322000Y-81534000D02*
X163830000Y-82042000D01*
X166624000Y-84582000D02*
X166624000Y-80772000D01*
X148336000Y-108204000D02*
X161036000Y-108204000D01*
X138938000Y-117602000D02*
X148336000Y-108204000D01*
X137795000Y-60325000D02*
X121158000Y-76962000D01*
X121158000Y-76962000D02*
X121158000Y-119126000D01*
X143002000Y-106680000D02*
X162052000Y-106680000D01*
X150495000Y-60325000D02*
X150495000Y-64389000D01*
X132842000Y-106172000D02*
X136144000Y-106172000D01*
X128524000Y-101854000D02*
X132842000Y-106172000D01*
X128524000Y-81280000D02*
X128524000Y-99314000D01*
X132334000Y-77470000D02*
X128524000Y-81280000D01*
X150495000Y-64389000D02*
X139954000Y-74930000D01*
X147955000Y-60325000D02*
X147955000Y-61595000D01*
X133858000Y-75692000D02*
X133858000Y-105156000D01*
X147955000Y-61595000D02*
X133858000Y-75692000D01*
X145415000Y-60325000D02*
X145415000Y-62357000D01*
X124714000Y-102108000D02*
X124714000Y-127508000D01*
X125476000Y-101346000D02*
X124714000Y-102108000D01*
X125476000Y-82296000D02*
X125476000Y-99314000D01*
X145415000Y-62357000D02*
X125476000Y-82296000D01*
X142875000Y-60325000D02*
X126746000Y-76454000D01*
X123444000Y-77978000D02*
X123444000Y-128778000D01*
X124968000Y-76454000D02*
X123444000Y-77978000D01*
X126746000Y-76454000D02*
X124968000Y-76454000D01*
X140335000Y-60325000D02*
X125222000Y-75438000D01*
X122174000Y-77216000D02*
X122174000Y-130302000D01*
X123952000Y-75438000D02*
X122174000Y-77216000D01*
X125222000Y-75438000D02*
X123952000Y-75438000D01*
X130810000Y-123952000D02*
X130810000Y-114046000D01*
D27*
X137795000Y-50165000D02*
X137795000Y-52070000D01*
X109220000Y-44450000D02*
X107315000Y-44450000D01*
X117475000Y-52705000D02*
X109220000Y-44450000D01*
X137160000Y-52705000D02*
X117475000Y-52705000D01*
X137795000Y-52070000D02*
X137160000Y-52705000D01*
X108686600Y-46456600D02*
X107315000Y-46456600D01*
X109220000Y-46990000D02*
X108686600Y-46456600D01*
X109220000Y-49530000D02*
X109220000Y-46990000D01*
X111760000Y-52070000D02*
X109220000Y-49530000D01*
D28*
G36*
X151343711Y-56689504D02*
X151442559Y-56837441D01*
X151590496Y-56936289D01*
X151765000Y-56971000D01*
X190679000Y-56971000D01*
X190679000Y-134799000D01*
X92531000Y-134799000D01*
X92531000Y-130567316D01*
X95173657Y-130567316D01*
X95474611Y-131295680D01*
X96031389Y-131853431D01*
X96759226Y-132155655D01*
X97547316Y-132156343D01*
X98275680Y-131855389D01*
X98833431Y-131298611D01*
X99135655Y-130570774D01*
X99136200Y-129946400D01*
X104157936Y-129946400D01*
X104157936Y-131673600D01*
X104184503Y-131814790D01*
X104267946Y-131944465D01*
X104395266Y-132031459D01*
X104546400Y-132062064D01*
X106273600Y-132062064D01*
X106414790Y-132035497D01*
X106544465Y-131952054D01*
X106631459Y-131824734D01*
X106662064Y-131673600D01*
X106662064Y-129946400D01*
X106635497Y-129805210D01*
X106552054Y-129675535D01*
X106424734Y-129588541D01*
X106273600Y-129557936D01*
X104546400Y-129557936D01*
X104405210Y-129584503D01*
X104275535Y-129667946D01*
X104188541Y-129795266D01*
X104157936Y-129946400D01*
X99136200Y-129946400D01*
X99136343Y-129782684D01*
X98835389Y-129054320D01*
X98278611Y-128496569D01*
X97550774Y-128194345D01*
X96762684Y-128193657D01*
X96034320Y-128494611D01*
X95476569Y-129051389D01*
X95174345Y-129779226D01*
X95173657Y-130567316D01*
X92531000Y-130567316D01*
X92531000Y-121056400D01*
X93845536Y-121056400D01*
X93845536Y-122783600D01*
X93872103Y-122924790D01*
X93955546Y-123054465D01*
X94082866Y-123141459D01*
X94234000Y-123172064D01*
X96266000Y-123172064D01*
X96407190Y-123145497D01*
X96536865Y-123062054D01*
X96623859Y-122934734D01*
X96654464Y-122783600D01*
X96654464Y-121056400D01*
X96627897Y-120915210D01*
X96544454Y-120785535D01*
X96417134Y-120698541D01*
X96266000Y-120667936D01*
X94234000Y-120667936D01*
X94092810Y-120694503D01*
X93963135Y-120777946D01*
X93876141Y-120905266D01*
X93845536Y-121056400D01*
X92531000Y-121056400D01*
X92531000Y-119380000D01*
X93825631Y-119380000D01*
X93920371Y-119856288D01*
X94190166Y-120260065D01*
X94593943Y-120529860D01*
X95070231Y-120624600D01*
X95429769Y-120624600D01*
X95906057Y-120529860D01*
X96309834Y-120260065D01*
X96579629Y-119856288D01*
X96647542Y-119514865D01*
X99648882Y-119514865D01*
X99752339Y-119765252D01*
X99943741Y-119956987D01*
X100193946Y-120060882D01*
X100464865Y-120061118D01*
X100715252Y-119957661D01*
X100787038Y-119886000D01*
X103378000Y-119886000D01*
X103571638Y-119847483D01*
X103735796Y-119737796D01*
X104428561Y-119045031D01*
X104528865Y-119045118D01*
X104779000Y-118941765D01*
X104779000Y-127199132D01*
X104529935Y-127365552D01*
X104260140Y-127769329D01*
X104165400Y-128245617D01*
X104165400Y-128294383D01*
X104260140Y-128770671D01*
X104529935Y-129174448D01*
X104933712Y-129444243D01*
X105410000Y-129538983D01*
X105886288Y-129444243D01*
X106290065Y-129174448D01*
X106559860Y-128770671D01*
X106654600Y-128294383D01*
X106654600Y-128245617D01*
X106705400Y-128245617D01*
X106705400Y-128294383D01*
X106800140Y-128770671D01*
X107069935Y-129174448D01*
X107473712Y-129444243D01*
X107950000Y-129538983D01*
X108426288Y-129444243D01*
X108830065Y-129174448D01*
X109099860Y-128770671D01*
X109100324Y-128768338D01*
X109283179Y-129158490D01*
X109701152Y-129540000D01*
X109283179Y-129921510D01*
X109100324Y-130311662D01*
X109099860Y-130309329D01*
X108830065Y-129905552D01*
X108426288Y-129635757D01*
X107950000Y-129541017D01*
X107473712Y-129635757D01*
X107069935Y-129905552D01*
X106800140Y-130309329D01*
X106705400Y-130785617D01*
X106705400Y-130834383D01*
X106800140Y-131310671D01*
X107069935Y-131714448D01*
X107473712Y-131984243D01*
X107950000Y-132078983D01*
X108426288Y-131984243D01*
X108830065Y-131714448D01*
X109099860Y-131310671D01*
X109100324Y-131308338D01*
X109283179Y-131698490D01*
X109715053Y-132092688D01*
X110130974Y-132264958D01*
X110363000Y-132143817D01*
X110363000Y-130937000D01*
X110617000Y-130937000D01*
X110617000Y-132143817D01*
X110849026Y-132264958D01*
X111264947Y-132092688D01*
X111696821Y-131698490D01*
X111944968Y-131169027D01*
X111824469Y-130937000D01*
X110617000Y-130937000D01*
X110363000Y-130937000D01*
X110343000Y-130937000D01*
X110343000Y-130683000D01*
X110363000Y-130683000D01*
X110363000Y-128397000D01*
X110617000Y-128397000D01*
X110617000Y-130683000D01*
X111824469Y-130683000D01*
X111944968Y-130450973D01*
X111696821Y-129921510D01*
X111278848Y-129540000D01*
X111696821Y-129158490D01*
X111944968Y-128629027D01*
X111906913Y-128555750D01*
X115341400Y-128555750D01*
X115341400Y-129259910D01*
X115438073Y-129493299D01*
X115616702Y-129671927D01*
X115850091Y-129768600D01*
X116177007Y-129768600D01*
X115935552Y-129929935D01*
X115665757Y-130333712D01*
X115571017Y-130810000D01*
X115665757Y-131286288D01*
X115935552Y-131690065D01*
X116339329Y-131959860D01*
X116815617Y-132054600D01*
X116864383Y-132054600D01*
X117340671Y-131959860D01*
X117744448Y-131690065D01*
X118014243Y-131286288D01*
X118108983Y-130810000D01*
X118014243Y-130333712D01*
X117744448Y-129929935D01*
X117502993Y-129768600D01*
X117829909Y-129768600D01*
X118063298Y-129671927D01*
X118241927Y-129493299D01*
X118338600Y-129259910D01*
X118338600Y-128945102D01*
X118475552Y-129150065D01*
X118874000Y-129416299D01*
X118874000Y-129663701D01*
X118475552Y-129929935D01*
X118205757Y-130333712D01*
X118111017Y-130810000D01*
X118205757Y-131286288D01*
X118475552Y-131690065D01*
X118879329Y-131959860D01*
X119355617Y-132054600D01*
X119404383Y-132054600D01*
X119841006Y-131967750D01*
X119948362Y-132039483D01*
X120142000Y-132078000D01*
X141786969Y-132078000D01*
X141663013Y-132201741D01*
X141559118Y-132451946D01*
X141558882Y-132722865D01*
X141662339Y-132973252D01*
X141853741Y-133164987D01*
X142103946Y-133268882D01*
X142374865Y-133269118D01*
X142625252Y-133165661D01*
X142697038Y-133094000D01*
X163576000Y-133094000D01*
X163769638Y-133055483D01*
X163933796Y-132945796D01*
X164187796Y-132691796D01*
X164297483Y-132527638D01*
X164336000Y-132334000D01*
X164336000Y-130567316D01*
X184073657Y-130567316D01*
X184374611Y-131295680D01*
X184931389Y-131853431D01*
X185659226Y-132155655D01*
X186447316Y-132156343D01*
X187175680Y-131855389D01*
X187733431Y-131298611D01*
X188035655Y-130570774D01*
X188036343Y-129782684D01*
X187735389Y-129054320D01*
X187178611Y-128496569D01*
X186450774Y-128194345D01*
X185662684Y-128193657D01*
X184934320Y-128494611D01*
X184376569Y-129051389D01*
X184074345Y-129779226D01*
X184073657Y-130567316D01*
X164336000Y-130567316D01*
X164336000Y-119593784D01*
X180530313Y-119593784D01*
X180694311Y-119990689D01*
X180997714Y-120294622D01*
X181394332Y-120459313D01*
X181823784Y-120459687D01*
X182175918Y-120314188D01*
X185935417Y-120314188D01*
X185997071Y-120549800D01*
X186497480Y-120725927D01*
X187027199Y-120697148D01*
X187382929Y-120549800D01*
X187444583Y-120314188D01*
X186690000Y-119559605D01*
X185935417Y-120314188D01*
X182175918Y-120314188D01*
X182220689Y-120295689D01*
X182524622Y-119992286D01*
X182689313Y-119595668D01*
X182689668Y-119187480D01*
X185344073Y-119187480D01*
X185372852Y-119717199D01*
X185520200Y-120072929D01*
X185755812Y-120134583D01*
X186510395Y-119380000D01*
X186869605Y-119380000D01*
X187624188Y-120134583D01*
X187859800Y-120072929D01*
X188035927Y-119572520D01*
X188007148Y-119042801D01*
X187859800Y-118687071D01*
X187624188Y-118625417D01*
X186869605Y-119380000D01*
X186510395Y-119380000D01*
X185755812Y-118625417D01*
X185520200Y-118687071D01*
X185344073Y-119187480D01*
X182689668Y-119187480D01*
X182689687Y-119166216D01*
X182525689Y-118769311D01*
X182222286Y-118465378D01*
X182175167Y-118445812D01*
X185935417Y-118445812D01*
X186690000Y-119200395D01*
X187444583Y-118445812D01*
X187382929Y-118210200D01*
X186882520Y-118034073D01*
X186352801Y-118062852D01*
X185997071Y-118210200D01*
X185935417Y-118445812D01*
X182175167Y-118445812D01*
X181825668Y-118300687D01*
X181396216Y-118300313D01*
X180999311Y-118464311D01*
X180695378Y-118767714D01*
X180530687Y-119164332D01*
X180530313Y-119593784D01*
X164336000Y-119593784D01*
X164336000Y-111973784D01*
X180530313Y-111973784D01*
X180694311Y-112370689D01*
X180997714Y-112674622D01*
X181394332Y-112839313D01*
X181823784Y-112839687D01*
X182175918Y-112694188D01*
X185935417Y-112694188D01*
X185997071Y-112929800D01*
X186497480Y-113105927D01*
X187027199Y-113077148D01*
X187382929Y-112929800D01*
X187444583Y-112694188D01*
X186690000Y-111939605D01*
X185935417Y-112694188D01*
X182175918Y-112694188D01*
X182220689Y-112675689D01*
X182524622Y-112372286D01*
X182689313Y-111975668D01*
X182689668Y-111567480D01*
X185344073Y-111567480D01*
X185372852Y-112097199D01*
X185520200Y-112452929D01*
X185755812Y-112514583D01*
X186510395Y-111760000D01*
X186869605Y-111760000D01*
X187624188Y-112514583D01*
X187859800Y-112452929D01*
X188035927Y-111952520D01*
X188007148Y-111422801D01*
X187859800Y-111067071D01*
X187624188Y-111005417D01*
X186869605Y-111760000D01*
X186510395Y-111760000D01*
X185755812Y-111005417D01*
X185520200Y-111067071D01*
X185344073Y-111567480D01*
X182689668Y-111567480D01*
X182689687Y-111546216D01*
X182525689Y-111149311D01*
X182222286Y-110845378D01*
X182175167Y-110825812D01*
X185935417Y-110825812D01*
X186690000Y-111580395D01*
X187444583Y-110825812D01*
X187382929Y-110590200D01*
X186882520Y-110414073D01*
X186352801Y-110442852D01*
X185997071Y-110590200D01*
X185935417Y-110825812D01*
X182175167Y-110825812D01*
X181825668Y-110680687D01*
X181396216Y-110680313D01*
X180999311Y-110844311D01*
X180695378Y-111147714D01*
X180530687Y-111544332D01*
X180530313Y-111973784D01*
X164336000Y-111973784D01*
X164336000Y-90492939D01*
X181249037Y-90492939D01*
X181496771Y-91092499D01*
X181955088Y-91551617D01*
X182554215Y-91800396D01*
X183202939Y-91800963D01*
X183802499Y-91553229D01*
X184261617Y-91094912D01*
X184510396Y-90495785D01*
X184510963Y-89847061D01*
X184263229Y-89247501D01*
X183804912Y-88788383D01*
X183205785Y-88539604D01*
X182557061Y-88539037D01*
X181957501Y-88786771D01*
X181498383Y-89245088D01*
X181249604Y-89844215D01*
X181249037Y-90492939D01*
X164336000Y-90492939D01*
X164336000Y-82042000D01*
X164297483Y-81848362D01*
X164187796Y-81684204D01*
X164003031Y-81499439D01*
X164003118Y-81399135D01*
X163899661Y-81148748D01*
X163708259Y-80957013D01*
X163587491Y-80906865D01*
X165942882Y-80906865D01*
X166046339Y-81157252D01*
X166118000Y-81229038D01*
X166118000Y-84124877D01*
X166047013Y-84195741D01*
X165943118Y-84445946D01*
X165942882Y-84716865D01*
X166046339Y-84967252D01*
X166237741Y-85158987D01*
X166487946Y-85262882D01*
X166758865Y-85263118D01*
X167009252Y-85159661D01*
X167200987Y-84968259D01*
X167304882Y-84718054D01*
X167305118Y-84447135D01*
X167201661Y-84196748D01*
X167130000Y-84124962D01*
X167130000Y-81343089D01*
X181726517Y-81343089D01*
X181855725Y-81635859D01*
X182555883Y-81904071D01*
X183305384Y-81883928D01*
X183904275Y-81635859D01*
X184033483Y-81343089D01*
X182880000Y-80189605D01*
X181726517Y-81343089D01*
X167130000Y-81343089D01*
X167130000Y-81229123D01*
X167200987Y-81158259D01*
X167304882Y-80908054D01*
X167305118Y-80637135D01*
X167201661Y-80386748D01*
X167010259Y-80195013D01*
X166889491Y-80144865D01*
X168736882Y-80144865D01*
X168840339Y-80395252D01*
X169031741Y-80586987D01*
X169281946Y-80690882D01*
X169552865Y-80691118D01*
X169803252Y-80587661D01*
X169994987Y-80396259D01*
X170098882Y-80146054D01*
X170098970Y-80044622D01*
X170457709Y-79685883D01*
X180985929Y-79685883D01*
X181006072Y-80435384D01*
X181254141Y-81034275D01*
X181546911Y-81163483D01*
X182700395Y-80010000D01*
X183059605Y-80010000D01*
X184213089Y-81163483D01*
X184505859Y-81034275D01*
X184774071Y-80334117D01*
X184753928Y-79584616D01*
X184505859Y-78985725D01*
X184213089Y-78856517D01*
X183059605Y-80010000D01*
X182700395Y-80010000D01*
X181546911Y-78856517D01*
X181254141Y-78985725D01*
X180985929Y-79685883D01*
X170457709Y-79685883D01*
X171466681Y-78676911D01*
X181726517Y-78676911D01*
X182880000Y-79830395D01*
X184033483Y-78676911D01*
X183904275Y-78384141D01*
X183204117Y-78115929D01*
X182454616Y-78136072D01*
X181855725Y-78384141D01*
X181726517Y-78676911D01*
X171466681Y-78676911D01*
X175040561Y-75103031D01*
X175140865Y-75103118D01*
X175391252Y-74999661D01*
X175582987Y-74808259D01*
X175686882Y-74558054D01*
X175687118Y-74287135D01*
X175583661Y-74036748D01*
X175392259Y-73845013D01*
X175142054Y-73741118D01*
X174871135Y-73740882D01*
X174620748Y-73844339D01*
X174429013Y-74035741D01*
X174325118Y-74285946D01*
X174325030Y-74387378D01*
X169383439Y-79328969D01*
X169283135Y-79328882D01*
X169032748Y-79432339D01*
X168841013Y-79623741D01*
X168737118Y-79873946D01*
X168736882Y-80144865D01*
X166889491Y-80144865D01*
X166760054Y-80091118D01*
X166489135Y-80090882D01*
X166238748Y-80194339D01*
X166047013Y-80385741D01*
X165943118Y-80635946D01*
X165942882Y-80906865D01*
X163587491Y-80906865D01*
X163458054Y-80853118D01*
X163187135Y-80852882D01*
X162936748Y-80956339D01*
X162745013Y-81147741D01*
X162641118Y-81397946D01*
X162640882Y-81668865D01*
X162744339Y-81919252D01*
X162935741Y-82110987D01*
X163185946Y-82214882D01*
X163287378Y-82214970D01*
X163324000Y-82251592D01*
X163324000Y-132082000D01*
X142697123Y-132082000D01*
X142693130Y-132078000D01*
X142748000Y-132078000D01*
X142941638Y-132039483D01*
X143002224Y-131999001D01*
X143136865Y-131999118D01*
X143387252Y-131895661D01*
X143578987Y-131704259D01*
X143682882Y-131454054D01*
X143683118Y-131183135D01*
X143579661Y-130932748D01*
X143388259Y-130741013D01*
X143138054Y-130637118D01*
X142867135Y-130636882D01*
X142616748Y-130740339D01*
X142425013Y-130931741D01*
X142369263Y-131066000D01*
X120598061Y-131066000D01*
X120648983Y-130810000D01*
X120554243Y-130333712D01*
X120284448Y-129929935D01*
X119886000Y-129663701D01*
X119886000Y-129416299D01*
X120284448Y-129150065D01*
X120554243Y-128746288D01*
X120648983Y-128270000D01*
X120554243Y-127793712D01*
X120284448Y-127389935D01*
X119880671Y-127120140D01*
X119404383Y-127025400D01*
X119355617Y-127025400D01*
X118879329Y-127120140D01*
X118475552Y-127389935D01*
X118338600Y-127594898D01*
X118338600Y-127280090D01*
X118241927Y-127046701D01*
X118063298Y-126868073D01*
X117829909Y-126771400D01*
X117125750Y-126771400D01*
X116967000Y-126930150D01*
X116967000Y-128143000D01*
X116987000Y-128143000D01*
X116987000Y-128397000D01*
X116967000Y-128397000D01*
X116967000Y-128417000D01*
X116713000Y-128417000D01*
X116713000Y-128397000D01*
X115500150Y-128397000D01*
X115341400Y-128555750D01*
X111906913Y-128555750D01*
X111824469Y-128397000D01*
X110617000Y-128397000D01*
X110363000Y-128397000D01*
X110343000Y-128397000D01*
X110343000Y-128143000D01*
X110363000Y-128143000D01*
X110363000Y-126936183D01*
X110617000Y-126936183D01*
X110617000Y-128143000D01*
X111824469Y-128143000D01*
X111944968Y-127910973D01*
X111696821Y-127381510D01*
X111585708Y-127280090D01*
X115341400Y-127280090D01*
X115341400Y-127984250D01*
X115500150Y-128143000D01*
X116713000Y-128143000D01*
X116713000Y-126930150D01*
X116554250Y-126771400D01*
X115850091Y-126771400D01*
X115616702Y-126868073D01*
X115438073Y-127046701D01*
X115341400Y-127280090D01*
X111585708Y-127280090D01*
X111264947Y-126987312D01*
X110849026Y-126815042D01*
X110617000Y-126936183D01*
X110363000Y-126936183D01*
X110130974Y-126815042D01*
X109715053Y-126987312D01*
X109283179Y-127381510D01*
X109100324Y-127771662D01*
X109099860Y-127769329D01*
X108830065Y-127365552D01*
X108426288Y-127095757D01*
X107950000Y-127001017D01*
X107473712Y-127095757D01*
X107069935Y-127365552D01*
X106800140Y-127769329D01*
X106705400Y-128245617D01*
X106654600Y-128245617D01*
X106559860Y-127769329D01*
X106290065Y-127365552D01*
X106041000Y-127199132D01*
X106041000Y-115196865D01*
X113110882Y-115196865D01*
X113161000Y-115318161D01*
X113161000Y-122679818D01*
X113111118Y-122799946D01*
X113110882Y-123070865D01*
X113214339Y-123321252D01*
X113405741Y-123512987D01*
X113655946Y-123616882D01*
X113926865Y-123617118D01*
X114177252Y-123513661D01*
X114368987Y-123322259D01*
X114472882Y-123072054D01*
X114473118Y-122801135D01*
X114423000Y-122679839D01*
X114423000Y-119260865D01*
X120476882Y-119260865D01*
X120580339Y-119511252D01*
X120771741Y-119702987D01*
X121021946Y-119806882D01*
X121292865Y-119807118D01*
X121543252Y-119703661D01*
X121668000Y-119579130D01*
X121668000Y-129844877D01*
X121597013Y-129915741D01*
X121493118Y-130165946D01*
X121492882Y-130436865D01*
X121596339Y-130687252D01*
X121787741Y-130878987D01*
X122037946Y-130982882D01*
X122308865Y-130983118D01*
X122559252Y-130879661D01*
X122750987Y-130688259D01*
X122854882Y-130438054D01*
X122855118Y-130167135D01*
X122751661Y-129916748D01*
X122680000Y-129844962D01*
X122680000Y-77425592D01*
X124161592Y-75944000D01*
X125222000Y-75944000D01*
X125415638Y-75905483D01*
X125579796Y-75795796D01*
X139776137Y-61599455D01*
X139858712Y-61654629D01*
X140335000Y-61749369D01*
X140811288Y-61654629D01*
X140867014Y-61617394D01*
X126536408Y-75948000D01*
X124968000Y-75948000D01*
X124774362Y-75986517D01*
X124610204Y-76096204D01*
X123086204Y-77620204D01*
X122976517Y-77784362D01*
X122938000Y-77978000D01*
X122938000Y-128320877D01*
X122867013Y-128391741D01*
X122763118Y-128641946D01*
X122762882Y-128912865D01*
X122866339Y-129163252D01*
X123057741Y-129354987D01*
X123307946Y-129458882D01*
X123578865Y-129459118D01*
X123829252Y-129355661D01*
X124018376Y-129166865D01*
X140796882Y-129166865D01*
X140900339Y-129417252D01*
X141091741Y-129608987D01*
X141341946Y-129712882D01*
X141612865Y-129713118D01*
X141863252Y-129609661D01*
X141935038Y-129538000D01*
X152908000Y-129538000D01*
X153101638Y-129499483D01*
X153265796Y-129389796D01*
X153375483Y-129225638D01*
X153414000Y-129032000D01*
X153375483Y-128838362D01*
X153265796Y-128674204D01*
X152986628Y-128395036D01*
X155078234Y-128395036D01*
X155250142Y-128811086D01*
X155568180Y-129129679D01*
X155983929Y-129302313D01*
X156434096Y-129302706D01*
X156850146Y-129130798D01*
X157168739Y-128812760D01*
X157341373Y-128397011D01*
X157341766Y-127946844D01*
X157169858Y-127530794D01*
X156851820Y-127212201D01*
X156436071Y-127039567D01*
X155985904Y-127039174D01*
X155569854Y-127211082D01*
X155251261Y-127529120D01*
X155078627Y-127944869D01*
X155078234Y-128395036D01*
X152986628Y-128395036D01*
X152906000Y-128314408D01*
X152906000Y-123513156D01*
X155078234Y-123513156D01*
X155250142Y-123929206D01*
X155568180Y-124247799D01*
X155983929Y-124420433D01*
X156434096Y-124420826D01*
X156850146Y-124248918D01*
X157168739Y-123930880D01*
X157341373Y-123515131D01*
X157341766Y-123064964D01*
X157169858Y-122648914D01*
X156851820Y-122330321D01*
X156436071Y-122157687D01*
X155985904Y-122157294D01*
X155569854Y-122329202D01*
X155251261Y-122647240D01*
X155078627Y-123062989D01*
X155078234Y-123513156D01*
X152906000Y-123513156D01*
X152906000Y-117228865D01*
X160100882Y-117228865D01*
X160151000Y-117350161D01*
X160151000Y-129791818D01*
X160101118Y-129911946D01*
X160100882Y-130182865D01*
X160204339Y-130433252D01*
X160395741Y-130624987D01*
X160645946Y-130728882D01*
X160916865Y-130729118D01*
X161167252Y-130625661D01*
X161358987Y-130434259D01*
X161462882Y-130184054D01*
X161463118Y-129913135D01*
X161413000Y-129791839D01*
X161413000Y-117350182D01*
X161462882Y-117230054D01*
X161463118Y-116959135D01*
X161359661Y-116708748D01*
X161168259Y-116517013D01*
X160918054Y-116413118D01*
X160647135Y-116412882D01*
X160396748Y-116516339D01*
X160205013Y-116707741D01*
X160101118Y-116957946D01*
X160100882Y-117228865D01*
X152906000Y-117228865D01*
X152906000Y-116795592D01*
X159292561Y-110409031D01*
X159392865Y-110409118D01*
X159643252Y-110305661D01*
X159834987Y-110114259D01*
X159938882Y-109864054D01*
X159939118Y-109593135D01*
X159835661Y-109342748D01*
X159644259Y-109151013D01*
X159394054Y-109047118D01*
X159123135Y-109046882D01*
X158872748Y-109150339D01*
X158681013Y-109341741D01*
X158577118Y-109591946D01*
X158577030Y-109693378D01*
X152042204Y-116228204D01*
X151932517Y-116392362D01*
X151894000Y-116586000D01*
X151894000Y-128524000D01*
X151894398Y-128526000D01*
X141935123Y-128526000D01*
X141864259Y-128455013D01*
X141614054Y-128351118D01*
X141343135Y-128350882D01*
X141092748Y-128454339D01*
X140901013Y-128645741D01*
X140797118Y-128895946D01*
X140796882Y-129166865D01*
X124018376Y-129166865D01*
X124020987Y-129164259D01*
X124124882Y-128914054D01*
X124125118Y-128643135D01*
X124021661Y-128392748D01*
X123950000Y-128320962D01*
X123950000Y-100464865D01*
X124032882Y-100464865D01*
X124136339Y-100715252D01*
X124327741Y-100906987D01*
X124577946Y-101010882D01*
X124848865Y-101011118D01*
X124883647Y-100996747D01*
X124795118Y-101209946D01*
X124795030Y-101311378D01*
X124356204Y-101750204D01*
X124246517Y-101914362D01*
X124208000Y-102108000D01*
X124208000Y-127050877D01*
X124137013Y-127121741D01*
X124033118Y-127371946D01*
X124032882Y-127642865D01*
X124136339Y-127893252D01*
X124327741Y-128084987D01*
X124577946Y-128188882D01*
X124848865Y-128189118D01*
X125099252Y-128085661D01*
X125290987Y-127894259D01*
X125394882Y-127644054D01*
X125395118Y-127373135D01*
X125291661Y-127122748D01*
X125220000Y-127050962D01*
X125220000Y-107830865D01*
X125556882Y-107830865D01*
X125660339Y-108081252D01*
X125732000Y-108153038D01*
X125732000Y-115620877D01*
X125661013Y-115691741D01*
X125557118Y-115941946D01*
X125556882Y-116212865D01*
X125660339Y-116463252D01*
X125851741Y-116654987D01*
X126101946Y-116758882D01*
X126372865Y-116759118D01*
X126623252Y-116655661D01*
X126814987Y-116464259D01*
X126918882Y-116214054D01*
X126919118Y-115943135D01*
X126815661Y-115692748D01*
X126744000Y-115620962D01*
X126744000Y-114180865D01*
X130128882Y-114180865D01*
X130232339Y-114431252D01*
X130304000Y-114503038D01*
X130304000Y-123494877D01*
X130233013Y-123565741D01*
X130129118Y-123815946D01*
X130128882Y-124086865D01*
X130232339Y-124337252D01*
X130423741Y-124528987D01*
X130673946Y-124632882D01*
X130944865Y-124633118D01*
X131195252Y-124529661D01*
X131386987Y-124338259D01*
X131490882Y-124088054D01*
X131491118Y-123817135D01*
X131387661Y-123566748D01*
X131316000Y-123494962D01*
X131316000Y-118752865D01*
X133938882Y-118752865D01*
X134042339Y-119003252D01*
X134233741Y-119194987D01*
X134483946Y-119298882D01*
X134754865Y-119299118D01*
X135005252Y-119195661D01*
X135077038Y-119124000D01*
X142798877Y-119124000D01*
X142869741Y-119194987D01*
X143119946Y-119298882D01*
X143390865Y-119299118D01*
X143641252Y-119195661D01*
X143832987Y-119004259D01*
X143936882Y-118754054D01*
X143937118Y-118483135D01*
X143833661Y-118232748D01*
X143642259Y-118041013D01*
X143392054Y-117937118D01*
X143121135Y-117936882D01*
X142870748Y-118040339D01*
X142798962Y-118112000D01*
X139391031Y-118112000D01*
X139514987Y-117988259D01*
X139618882Y-117738054D01*
X139618970Y-117636622D01*
X148545592Y-108710000D01*
X160578877Y-108710000D01*
X160649741Y-108780987D01*
X160899946Y-108884882D01*
X161170865Y-108885118D01*
X161421252Y-108781661D01*
X161612987Y-108590259D01*
X161716882Y-108340054D01*
X161717118Y-108069135D01*
X161613661Y-107818748D01*
X161422259Y-107627013D01*
X161172054Y-107523118D01*
X160901135Y-107522882D01*
X160650748Y-107626339D01*
X160578962Y-107698000D01*
X148336000Y-107698000D01*
X148142362Y-107736517D01*
X147978204Y-107846204D01*
X138903439Y-116920969D01*
X138803135Y-116920882D01*
X138552748Y-117024339D01*
X138361013Y-117215741D01*
X138257118Y-117465946D01*
X138256882Y-117736865D01*
X138360339Y-117987252D01*
X138484870Y-118112000D01*
X135077123Y-118112000D01*
X135006259Y-118041013D01*
X134756054Y-117937118D01*
X134485135Y-117936882D01*
X134234748Y-118040339D01*
X134043013Y-118231741D01*
X133939118Y-118481946D01*
X133938882Y-118752865D01*
X131316000Y-118752865D01*
X131316000Y-114503123D01*
X131386987Y-114432259D01*
X131490882Y-114182054D01*
X131491118Y-113911135D01*
X131387661Y-113660748D01*
X131196259Y-113469013D01*
X130946054Y-113365118D01*
X130675135Y-113364882D01*
X130424748Y-113468339D01*
X130233013Y-113659741D01*
X130129118Y-113909946D01*
X130128882Y-114180865D01*
X126744000Y-114180865D01*
X126744000Y-108153123D01*
X126814987Y-108082259D01*
X126918882Y-107832054D01*
X126919118Y-107561135D01*
X126815661Y-107310748D01*
X126624259Y-107119013D01*
X126374054Y-107015118D01*
X126103135Y-107014882D01*
X125852748Y-107118339D01*
X125661013Y-107309741D01*
X125557118Y-107559946D01*
X125556882Y-107830865D01*
X125220000Y-107830865D01*
X125220000Y-102317592D01*
X125510561Y-102027031D01*
X125610865Y-102027118D01*
X125861252Y-101923661D01*
X126052987Y-101732259D01*
X126156882Y-101482054D01*
X126157118Y-101211135D01*
X126053661Y-100960748D01*
X125929130Y-100836000D01*
X132384877Y-100836000D01*
X132455741Y-100906987D01*
X132705946Y-101010882D01*
X132976865Y-101011118D01*
X133227252Y-100907661D01*
X133352000Y-100783130D01*
X133352000Y-104698877D01*
X133281013Y-104769741D01*
X133177118Y-105019946D01*
X133176882Y-105290865D01*
X133280339Y-105541252D01*
X133404870Y-105666000D01*
X133051592Y-105666000D01*
X129205031Y-101819439D01*
X129205118Y-101719135D01*
X129101661Y-101468748D01*
X128910259Y-101277013D01*
X128660054Y-101173118D01*
X128389135Y-101172882D01*
X128138748Y-101276339D01*
X127947013Y-101467741D01*
X127843118Y-101717946D01*
X127842882Y-101988865D01*
X127946339Y-102239252D01*
X128137741Y-102430987D01*
X128387946Y-102534882D01*
X128489378Y-102534970D01*
X132484204Y-106529796D01*
X132648362Y-106639483D01*
X132842000Y-106678000D01*
X135686877Y-106678000D01*
X135757741Y-106748987D01*
X136007946Y-106852882D01*
X136278865Y-106853118D01*
X136371445Y-106814865D01*
X142320882Y-106814865D01*
X142424339Y-107065252D01*
X142615741Y-107256987D01*
X142865946Y-107360882D01*
X143136865Y-107361118D01*
X143387252Y-107257661D01*
X143459038Y-107186000D01*
X161594877Y-107186000D01*
X161665741Y-107256987D01*
X161915946Y-107360882D01*
X162186865Y-107361118D01*
X162437252Y-107257661D01*
X162628987Y-107066259D01*
X162732882Y-106816054D01*
X162733118Y-106545135D01*
X162629661Y-106294748D01*
X162438259Y-106103013D01*
X162188054Y-105999118D01*
X161917135Y-105998882D01*
X161666748Y-106102339D01*
X161594962Y-106174000D01*
X143459123Y-106174000D01*
X143388259Y-106103013D01*
X143138054Y-105999118D01*
X142867135Y-105998882D01*
X142616748Y-106102339D01*
X142425013Y-106293741D01*
X142321118Y-106543946D01*
X142320882Y-106814865D01*
X136371445Y-106814865D01*
X136529252Y-106749661D01*
X136720987Y-106558259D01*
X136824882Y-106308054D01*
X136825118Y-106037135D01*
X136721661Y-105786748D01*
X136530259Y-105595013D01*
X136280054Y-105491118D01*
X136009135Y-105490882D01*
X135758748Y-105594339D01*
X135686962Y-105666000D01*
X134311031Y-105666000D01*
X134434987Y-105542259D01*
X134538882Y-105292054D01*
X134539118Y-105021135D01*
X134435661Y-104770748D01*
X134364000Y-104698962D01*
X134364000Y-100210865D01*
X143336882Y-100210865D01*
X143440339Y-100461252D01*
X143631741Y-100652987D01*
X143881946Y-100756882D01*
X144152865Y-100757118D01*
X144403252Y-100653661D01*
X144475038Y-100582000D01*
X159562877Y-100582000D01*
X159633741Y-100652987D01*
X159883946Y-100756882D01*
X160154865Y-100757118D01*
X160405252Y-100653661D01*
X160596987Y-100462259D01*
X160700882Y-100212054D01*
X160701118Y-99941135D01*
X160597661Y-99690748D01*
X160406259Y-99499013D01*
X160156054Y-99395118D01*
X159885135Y-99394882D01*
X159634748Y-99498339D01*
X159562962Y-99570000D01*
X144475123Y-99570000D01*
X144404259Y-99499013D01*
X144154054Y-99395118D01*
X143883135Y-99394882D01*
X143632748Y-99498339D01*
X143441013Y-99689741D01*
X143337118Y-99939946D01*
X143336882Y-100210865D01*
X134364000Y-100210865D01*
X134364000Y-92980000D01*
X135771536Y-92980000D01*
X135771536Y-94980000D01*
X135798103Y-95121190D01*
X135881546Y-95250865D01*
X136008866Y-95337859D01*
X136160000Y-95368464D01*
X138160000Y-95368464D01*
X138301190Y-95341897D01*
X138430865Y-95258454D01*
X138517859Y-95131134D01*
X138548464Y-94980000D01*
X138548464Y-94781187D01*
X138916705Y-95150072D01*
X139194000Y-95265215D01*
X139194000Y-95758000D01*
X139232517Y-95951638D01*
X139342204Y-96115796D01*
X140104204Y-96877796D01*
X140268362Y-96987483D01*
X140462000Y-97026000D01*
X142284408Y-97026000D01*
X143590969Y-98332561D01*
X143590882Y-98432865D01*
X143694339Y-98683252D01*
X143885741Y-98874987D01*
X144135946Y-98978882D01*
X144406865Y-98979118D01*
X144657252Y-98875661D01*
X144848987Y-98684259D01*
X144952882Y-98434054D01*
X144953118Y-98163135D01*
X144849661Y-97912748D01*
X144658259Y-97721013D01*
X144408054Y-97617118D01*
X144306622Y-97617030D01*
X144144481Y-97454889D01*
X144406865Y-97455118D01*
X144657252Y-97351661D01*
X144848987Y-97160259D01*
X144952882Y-96910054D01*
X144952970Y-96808622D01*
X146589569Y-95172023D01*
X147044097Y-95360759D01*
X147593493Y-95361239D01*
X148101251Y-95151437D01*
X148490072Y-94763295D01*
X148589985Y-94522676D01*
X148688563Y-94761251D01*
X149076705Y-95150072D01*
X149584097Y-95360759D01*
X150133493Y-95361239D01*
X150641251Y-95151437D01*
X151030072Y-94763295D01*
X151129985Y-94522676D01*
X151228563Y-94761251D01*
X151616705Y-95150072D01*
X152124097Y-95360759D01*
X152673493Y-95361239D01*
X153181251Y-95151437D01*
X153570072Y-94763295D01*
X153780759Y-94255903D01*
X153781239Y-93706507D01*
X153571437Y-93198749D01*
X153183295Y-92809928D01*
X152675903Y-92599241D01*
X152126507Y-92598761D01*
X151618749Y-92808563D01*
X151229928Y-93196705D01*
X151130015Y-93437324D01*
X151031437Y-93198749D01*
X150643295Y-92809928D01*
X150135903Y-92599241D01*
X149586507Y-92598761D01*
X149078749Y-92808563D01*
X148689928Y-93196705D01*
X148590015Y-93437324D01*
X148491437Y-93198749D01*
X148103295Y-92809928D01*
X147595903Y-92599241D01*
X147046507Y-92598761D01*
X146538749Y-92808563D01*
X146149928Y-93196705D01*
X146050015Y-93437324D01*
X145951437Y-93198749D01*
X145563295Y-92809928D01*
X145055903Y-92599241D01*
X144506507Y-92598761D01*
X143998749Y-92808563D01*
X143609928Y-93196705D01*
X143510015Y-93437324D01*
X143411437Y-93198749D01*
X143023295Y-92809928D01*
X142515903Y-92599241D01*
X141966507Y-92598761D01*
X141458749Y-92808563D01*
X141069928Y-93196705D01*
X140970015Y-93437324D01*
X140871437Y-93198749D01*
X140483295Y-92809928D01*
X139975903Y-92599241D01*
X139426507Y-92598761D01*
X138918749Y-92808563D01*
X138548464Y-93178201D01*
X138548464Y-92980000D01*
X138521897Y-92838810D01*
X138438454Y-92709135D01*
X138311134Y-92622141D01*
X138160000Y-92591536D01*
X136160000Y-92591536D01*
X136018810Y-92618103D01*
X135889135Y-92701546D01*
X135802141Y-92828866D01*
X135771536Y-92980000D01*
X134364000Y-92980000D01*
X134364000Y-90304865D01*
X151464882Y-90304865D01*
X151568339Y-90555252D01*
X151759741Y-90746987D01*
X152009946Y-90850882D01*
X152111378Y-90850970D01*
X153242969Y-91982561D01*
X153242882Y-92082865D01*
X153346339Y-92333252D01*
X153537741Y-92524987D01*
X153787946Y-92628882D01*
X154058865Y-92629118D01*
X154309252Y-92525661D01*
X154500987Y-92334259D01*
X154604882Y-92084054D01*
X154605118Y-91813135D01*
X154501661Y-91562748D01*
X154310259Y-91371013D01*
X154060054Y-91267118D01*
X153958622Y-91267030D01*
X152827031Y-90135439D01*
X152827118Y-90035135D01*
X152723661Y-89784748D01*
X152532259Y-89593013D01*
X152282054Y-89489118D01*
X152011135Y-89488882D01*
X151760748Y-89592339D01*
X151569013Y-89783741D01*
X151465118Y-90033946D01*
X151464882Y-90304865D01*
X134364000Y-90304865D01*
X134364000Y-87510865D01*
X155528882Y-87510865D01*
X155632339Y-87761252D01*
X155823741Y-87952987D01*
X156073946Y-88056882D01*
X156344865Y-88057118D01*
X156404773Y-88032365D01*
X159338969Y-90966561D01*
X159338882Y-91066865D01*
X159442339Y-91317252D01*
X159633741Y-91508987D01*
X159883946Y-91612882D01*
X160154865Y-91613118D01*
X160405252Y-91509661D01*
X160596987Y-91318259D01*
X160700882Y-91068054D01*
X160701118Y-90797135D01*
X160597661Y-90546748D01*
X160406259Y-90355013D01*
X160156054Y-90251118D01*
X160054622Y-90251030D01*
X157060457Y-87256865D01*
X159084882Y-87256865D01*
X159188339Y-87507252D01*
X159379741Y-87698987D01*
X159629946Y-87802882D01*
X159731378Y-87802970D01*
X161624969Y-89696561D01*
X161624882Y-89796865D01*
X161728339Y-90047252D01*
X161919741Y-90238987D01*
X162169946Y-90342882D01*
X162440865Y-90343118D01*
X162691252Y-90239661D01*
X162882987Y-90048259D01*
X162986882Y-89798054D01*
X162987118Y-89527135D01*
X162883661Y-89276748D01*
X162692259Y-89085013D01*
X162442054Y-88981118D01*
X162340622Y-88981030D01*
X160447031Y-87087439D01*
X160447118Y-86987135D01*
X160343661Y-86736748D01*
X160152259Y-86545013D01*
X159902054Y-86441118D01*
X159631135Y-86440882D01*
X159380748Y-86544339D01*
X159189013Y-86735741D01*
X159085118Y-86985946D01*
X159084882Y-87256865D01*
X157060457Y-87256865D01*
X156821796Y-87018204D01*
X156790314Y-86997168D01*
X156787661Y-86990748D01*
X156596259Y-86799013D01*
X156346054Y-86695118D01*
X156075135Y-86694882D01*
X155824748Y-86798339D01*
X155633013Y-86989741D01*
X155529118Y-87239946D01*
X155528882Y-87510865D01*
X134364000Y-87510865D01*
X134364000Y-75901592D01*
X136478889Y-73786703D01*
X136478882Y-73794865D01*
X136582339Y-74045252D01*
X136773741Y-74236987D01*
X137023946Y-74340882D01*
X137125378Y-74340970D01*
X139194000Y-76409592D01*
X139194000Y-77454831D01*
X138918749Y-77568563D01*
X138529928Y-77956705D01*
X138319241Y-78464097D01*
X138318761Y-79013493D01*
X138528563Y-79521251D01*
X138916705Y-79910072D01*
X139424097Y-80120759D01*
X139973493Y-80121239D01*
X140481251Y-79911437D01*
X140870072Y-79523295D01*
X140969985Y-79282676D01*
X141068563Y-79521251D01*
X141456705Y-79910072D01*
X141964097Y-80120759D01*
X142513493Y-80121239D01*
X143021251Y-79911437D01*
X143410072Y-79523295D01*
X143509985Y-79282676D01*
X143608563Y-79521251D01*
X143996705Y-79910072D01*
X144504097Y-80120759D01*
X145053493Y-80121239D01*
X145561251Y-79911437D01*
X145950072Y-79523295D01*
X146049985Y-79282676D01*
X146148563Y-79521251D01*
X146536705Y-79910072D01*
X147044097Y-80120759D01*
X147593493Y-80121239D01*
X148101251Y-79911437D01*
X148490072Y-79523295D01*
X148589985Y-79282676D01*
X148688563Y-79521251D01*
X149076705Y-79910072D01*
X149584097Y-80120759D01*
X150133493Y-80121239D01*
X150641251Y-79911437D01*
X151030072Y-79523295D01*
X151145215Y-79246000D01*
X157734000Y-79246000D01*
X157927638Y-79207483D01*
X158091796Y-79097796D01*
X162594561Y-74595031D01*
X162694865Y-74595118D01*
X162945252Y-74491661D01*
X163136987Y-74300259D01*
X163240882Y-74050054D01*
X163241118Y-73779135D01*
X163137661Y-73528748D01*
X162946259Y-73337013D01*
X162696054Y-73233118D01*
X162425135Y-73232882D01*
X162174748Y-73336339D01*
X161983013Y-73527741D01*
X161879118Y-73777946D01*
X161879030Y-73879378D01*
X157524408Y-78234000D01*
X151145169Y-78234000D01*
X151031437Y-77958749D01*
X150643295Y-77569928D01*
X150135903Y-77359241D01*
X149586507Y-77358761D01*
X149078749Y-77568563D01*
X148689928Y-77956705D01*
X148590015Y-78197324D01*
X148491437Y-77958749D01*
X148103295Y-77569928D01*
X147826000Y-77454785D01*
X147826000Y-76409592D01*
X149894561Y-74341031D01*
X149994865Y-74341118D01*
X150245252Y-74237661D01*
X150436987Y-74046259D01*
X150540882Y-73796054D01*
X150541118Y-73525135D01*
X150437661Y-73274748D01*
X150246259Y-73083013D01*
X149996054Y-72979118D01*
X149725135Y-72978882D01*
X149474748Y-73082339D01*
X149283013Y-73273741D01*
X149179118Y-73523946D01*
X149179030Y-73625378D01*
X146962204Y-75842204D01*
X146852517Y-76006362D01*
X146814000Y-76200000D01*
X146814000Y-77454831D01*
X146538749Y-77568563D01*
X146149928Y-77956705D01*
X146050015Y-78197324D01*
X145951437Y-77958749D01*
X145563295Y-77569928D01*
X145055903Y-77359241D01*
X144506507Y-77358761D01*
X143998749Y-77568563D01*
X143609928Y-77956705D01*
X143510015Y-78197324D01*
X143411437Y-77958749D01*
X143023295Y-77569928D01*
X142515903Y-77359241D01*
X141966507Y-77358761D01*
X141458749Y-77568563D01*
X141069928Y-77956705D01*
X140970015Y-78197324D01*
X140871437Y-77958749D01*
X140483295Y-77569928D01*
X140206000Y-77454785D01*
X140206000Y-76200000D01*
X140167483Y-76006362D01*
X140057796Y-75842204D01*
X139826481Y-75610889D01*
X140088865Y-75611118D01*
X140339252Y-75507661D01*
X140530987Y-75316259D01*
X140634882Y-75066054D01*
X140634970Y-74964622D01*
X150852796Y-64746796D01*
X150962483Y-64582638D01*
X151001000Y-64389000D01*
X151001000Y-61987316D01*
X184073657Y-61987316D01*
X184374611Y-62715680D01*
X184931389Y-63273431D01*
X185659226Y-63575655D01*
X186447316Y-63576343D01*
X187175680Y-63275389D01*
X187733431Y-62718611D01*
X188035655Y-61990774D01*
X188036343Y-61202684D01*
X187735389Y-60474320D01*
X187178611Y-59916569D01*
X186450774Y-59614345D01*
X185662684Y-59613657D01*
X184934320Y-59914611D01*
X184376569Y-60471389D01*
X184074345Y-61199226D01*
X184073657Y-61987316D01*
X151001000Y-61987316D01*
X151001000Y-61729464D01*
X151358600Y-61729464D01*
X151499790Y-61702897D01*
X151629465Y-61619454D01*
X151716459Y-61492134D01*
X151747064Y-61341000D01*
X151747064Y-59309000D01*
X151720497Y-59167810D01*
X151637054Y-59038135D01*
X151509734Y-58951141D01*
X151358600Y-58920536D01*
X149631400Y-58920536D01*
X149490210Y-58947103D01*
X149360535Y-59030546D01*
X149273541Y-59157866D01*
X149242936Y-59309000D01*
X149242936Y-61341000D01*
X149269503Y-61482190D01*
X149352946Y-61611865D01*
X149480266Y-61698859D01*
X149631400Y-61729464D01*
X149989000Y-61729464D01*
X149989000Y-64179408D01*
X139919439Y-74248969D01*
X139819135Y-74248882D01*
X139568748Y-74352339D01*
X139377013Y-74543741D01*
X139273118Y-74793946D01*
X139272889Y-75057297D01*
X137841031Y-73625439D01*
X137841118Y-73525135D01*
X137737661Y-73274748D01*
X137546259Y-73083013D01*
X137296054Y-72979118D01*
X137286482Y-72979110D01*
X148312796Y-61952796D01*
X148330239Y-61926690D01*
X148422483Y-61788638D01*
X148451875Y-61640873D01*
X148835065Y-61384834D01*
X149104860Y-60981057D01*
X149199600Y-60504769D01*
X149199600Y-60145231D01*
X149104860Y-59668943D01*
X148835065Y-59265166D01*
X148431288Y-58995371D01*
X147955000Y-58900631D01*
X147478712Y-58995371D01*
X147074935Y-59265166D01*
X146805140Y-59668943D01*
X146710400Y-60145231D01*
X146710400Y-60504769D01*
X146805140Y-60981057D01*
X147074935Y-61384834D01*
X147299515Y-61534893D01*
X133500204Y-75334204D01*
X133390517Y-75498362D01*
X133352000Y-75692000D01*
X133352000Y-99876969D01*
X133228259Y-99753013D01*
X132978054Y-99649118D01*
X132707135Y-99648882D01*
X132456748Y-99752339D01*
X132384962Y-99824000D01*
X128977031Y-99824000D01*
X129100987Y-99700259D01*
X129204882Y-99450054D01*
X129205118Y-99179135D01*
X129101661Y-98928748D01*
X129030000Y-98856962D01*
X129030000Y-81489592D01*
X132368561Y-78151031D01*
X132468865Y-78151118D01*
X132719252Y-78047661D01*
X132910987Y-77856259D01*
X133014882Y-77606054D01*
X133015118Y-77335135D01*
X132911661Y-77084748D01*
X132720259Y-76893013D01*
X132470054Y-76789118D01*
X132199135Y-76788882D01*
X131948748Y-76892339D01*
X131757013Y-77083741D01*
X131653118Y-77333946D01*
X131653030Y-77435378D01*
X128166204Y-80922204D01*
X128056517Y-81086362D01*
X128018000Y-81280000D01*
X128018000Y-98856877D01*
X127947013Y-98927741D01*
X127843118Y-99177946D01*
X127842882Y-99448865D01*
X127946339Y-99699252D01*
X128070870Y-99824000D01*
X125929031Y-99824000D01*
X126052987Y-99700259D01*
X126156882Y-99450054D01*
X126157118Y-99179135D01*
X126053661Y-98928748D01*
X125982000Y-98856962D01*
X125982000Y-82505592D01*
X145772796Y-62714796D01*
X145882483Y-62550638D01*
X145921000Y-62357000D01*
X145921000Y-61634776D01*
X146295065Y-61384834D01*
X146564860Y-60981057D01*
X146659600Y-60504769D01*
X146659600Y-60145231D01*
X146564860Y-59668943D01*
X146295065Y-59265166D01*
X145891288Y-58995371D01*
X145415000Y-58900631D01*
X144938712Y-58995371D01*
X144534935Y-59265166D01*
X144265140Y-59668943D01*
X144170400Y-60145231D01*
X144170400Y-60504769D01*
X144265140Y-60981057D01*
X144534935Y-61384834D01*
X144909000Y-61634776D01*
X144909000Y-62147408D01*
X128443111Y-78613297D01*
X128443118Y-78605135D01*
X128339661Y-78354748D01*
X128148259Y-78163013D01*
X127898054Y-78059118D01*
X127627135Y-78058882D01*
X127376748Y-78162339D01*
X127304962Y-78234000D01*
X125425123Y-78234000D01*
X125354259Y-78163013D01*
X125104054Y-78059118D01*
X124833135Y-78058882D01*
X124582748Y-78162339D01*
X124391013Y-78353741D01*
X124287118Y-78603946D01*
X124286882Y-78874865D01*
X124390339Y-79125252D01*
X124581741Y-79316987D01*
X124831946Y-79420882D01*
X125102865Y-79421118D01*
X125353252Y-79317661D01*
X125425038Y-79246000D01*
X127304877Y-79246000D01*
X127375741Y-79316987D01*
X127625946Y-79420882D01*
X127635518Y-79420890D01*
X125118204Y-81938204D01*
X125008517Y-82102362D01*
X124970000Y-82296000D01*
X124970000Y-98856877D01*
X124899013Y-98927741D01*
X124795118Y-99177946D01*
X124794882Y-99448865D01*
X124883334Y-99662937D01*
X124850054Y-99649118D01*
X124579135Y-99648882D01*
X124328748Y-99752339D01*
X124137013Y-99943741D01*
X124033118Y-100193946D01*
X124032882Y-100464865D01*
X123950000Y-100464865D01*
X123950000Y-78187592D01*
X125177592Y-76960000D01*
X126746000Y-76960000D01*
X126939638Y-76921483D01*
X127103796Y-76811796D01*
X142316137Y-61599455D01*
X142398712Y-61654629D01*
X142875000Y-61749369D01*
X143351288Y-61654629D01*
X143755065Y-61384834D01*
X144024860Y-60981057D01*
X144119600Y-60504769D01*
X144119600Y-60145231D01*
X144024860Y-59668943D01*
X143755065Y-59265166D01*
X143351288Y-58995371D01*
X142875000Y-58900631D01*
X142398712Y-58995371D01*
X141994935Y-59265166D01*
X141725140Y-59668943D01*
X141630400Y-60145231D01*
X141630400Y-60504769D01*
X141688343Y-60796065D01*
X141447625Y-61036783D01*
X141484860Y-60981057D01*
X141579600Y-60504769D01*
X141579600Y-60145231D01*
X141484860Y-59668943D01*
X141215065Y-59265166D01*
X140811288Y-58995371D01*
X140335000Y-58900631D01*
X139858712Y-58995371D01*
X139454935Y-59265166D01*
X139185140Y-59668943D01*
X139090400Y-60145231D01*
X139090400Y-60504769D01*
X139148343Y-60796065D01*
X138907625Y-61036783D01*
X138944860Y-60981057D01*
X139039600Y-60504769D01*
X139039600Y-60145231D01*
X138944860Y-59668943D01*
X138675065Y-59265166D01*
X138271288Y-58995371D01*
X137795000Y-58900631D01*
X137318712Y-58995371D01*
X136914935Y-59265166D01*
X136645140Y-59668943D01*
X136550400Y-60145231D01*
X136550400Y-60504769D01*
X136608343Y-60796065D01*
X136367625Y-61036783D01*
X136404860Y-60981057D01*
X136499600Y-60504769D01*
X136499600Y-60145231D01*
X136404860Y-59668943D01*
X136135065Y-59265166D01*
X135731288Y-58995371D01*
X135255000Y-58900631D01*
X134778712Y-58995371D01*
X134374935Y-59265166D01*
X134105140Y-59668943D01*
X134102296Y-59683243D01*
X134006954Y-59410680D01*
X133617036Y-58974268D01*
X133089791Y-58720291D01*
X133074026Y-58717642D01*
X132842000Y-58838783D01*
X132842000Y-60198000D01*
X132862000Y-60198000D01*
X132862000Y-60452000D01*
X132842000Y-60452000D01*
X132842000Y-61811217D01*
X133074026Y-61932358D01*
X133089791Y-61929709D01*
X133617036Y-61675732D01*
X134006954Y-61239320D01*
X134102296Y-60966757D01*
X134105140Y-60981057D01*
X134374935Y-61384834D01*
X134778712Y-61654629D01*
X135255000Y-61749369D01*
X135731288Y-61654629D01*
X135787014Y-61617394D01*
X120800204Y-76604204D01*
X120690517Y-76768362D01*
X120652000Y-76962000D01*
X120652000Y-118668877D01*
X120581013Y-118739741D01*
X120477118Y-118989946D01*
X120476882Y-119260865D01*
X114423000Y-119260865D01*
X114423000Y-115318182D01*
X114472882Y-115198054D01*
X114473118Y-114927135D01*
X114369661Y-114676748D01*
X114178259Y-114485013D01*
X113928054Y-114381118D01*
X113657135Y-114380882D01*
X113406748Y-114484339D01*
X113215013Y-114675741D01*
X113111118Y-114925946D01*
X113110882Y-115196865D01*
X106041000Y-115196865D01*
X106041000Y-108204000D01*
X105992968Y-107962527D01*
X105915243Y-107846204D01*
X105856184Y-107757815D01*
X105529333Y-107430965D01*
X105479661Y-107310748D01*
X105288259Y-107119013D01*
X105038054Y-107015118D01*
X104767135Y-107014882D01*
X104516748Y-107118339D01*
X104325013Y-107309741D01*
X104221118Y-107559946D01*
X104220882Y-107830865D01*
X104324339Y-108081252D01*
X104515741Y-108272987D01*
X104636949Y-108323317D01*
X104779000Y-108465369D01*
X104779000Y-117786490D01*
X104530054Y-117683118D01*
X104259135Y-117682882D01*
X104008748Y-117786339D01*
X103817013Y-117977741D01*
X103713118Y-118227946D01*
X103713030Y-118329378D01*
X103168408Y-118874000D01*
X100787123Y-118874000D01*
X100716259Y-118803013D01*
X100466054Y-118699118D01*
X100195135Y-118698882D01*
X99944748Y-118802339D01*
X99753013Y-118993741D01*
X99649118Y-119243946D01*
X99648882Y-119514865D01*
X96647542Y-119514865D01*
X96674369Y-119380000D01*
X96579629Y-118903712D01*
X96309834Y-118499935D01*
X95906057Y-118230140D01*
X95429769Y-118135400D01*
X95070231Y-118135400D01*
X94593943Y-118230140D01*
X94190166Y-118499935D01*
X93920371Y-118903712D01*
X93825631Y-119380000D01*
X92531000Y-119380000D01*
X92531000Y-116840000D01*
X93825631Y-116840000D01*
X93920371Y-117316288D01*
X94190166Y-117720065D01*
X94593943Y-117989860D01*
X95070231Y-118084600D01*
X95429769Y-118084600D01*
X95906057Y-117989860D01*
X96309834Y-117720065D01*
X96579629Y-117316288D01*
X96674369Y-116840000D01*
X96579629Y-116363712D01*
X96309834Y-115959935D01*
X95906057Y-115690140D01*
X95429769Y-115595400D01*
X95070231Y-115595400D01*
X94593943Y-115690140D01*
X94190166Y-115959935D01*
X93920371Y-116363712D01*
X93825631Y-116840000D01*
X92531000Y-116840000D01*
X92531000Y-112119026D01*
X93642642Y-112119026D01*
X93645291Y-112134791D01*
X93899268Y-112662036D01*
X94335680Y-113051954D01*
X94608243Y-113147296D01*
X94593943Y-113150140D01*
X94190166Y-113419935D01*
X93920371Y-113823712D01*
X93825631Y-114300000D01*
X93920371Y-114776288D01*
X94190166Y-115180065D01*
X94593943Y-115449860D01*
X95070231Y-115544600D01*
X95429769Y-115544600D01*
X95906057Y-115449860D01*
X96309834Y-115180065D01*
X96579629Y-114776288D01*
X96674369Y-114300000D01*
X96579629Y-113823712D01*
X96309834Y-113419935D01*
X95906057Y-113150140D01*
X95891757Y-113147296D01*
X96164320Y-113051954D01*
X96600732Y-112662036D01*
X96854709Y-112134791D01*
X96857358Y-112119026D01*
X96736217Y-111887000D01*
X95377000Y-111887000D01*
X95377000Y-111907000D01*
X95123000Y-111907000D01*
X95123000Y-111887000D01*
X93763783Y-111887000D01*
X93642642Y-112119026D01*
X92531000Y-112119026D01*
X92531000Y-111400974D01*
X93642642Y-111400974D01*
X93763783Y-111633000D01*
X95123000Y-111633000D01*
X95123000Y-110419076D01*
X95377000Y-110419076D01*
X95377000Y-111633000D01*
X96736217Y-111633000D01*
X96857358Y-111400974D01*
X96854709Y-111385209D01*
X96600732Y-110857964D01*
X96164320Y-110468046D01*
X95611913Y-110274816D01*
X95377000Y-110419076D01*
X95123000Y-110419076D01*
X94888087Y-110274816D01*
X94335680Y-110468046D01*
X93899268Y-110857964D01*
X93645291Y-111385209D01*
X93642642Y-111400974D01*
X92531000Y-111400974D01*
X92531000Y-104546400D01*
X93845536Y-104546400D01*
X93845536Y-106273600D01*
X93872103Y-106414790D01*
X93955546Y-106544465D01*
X94082866Y-106631459D01*
X94234000Y-106662064D01*
X96266000Y-106662064D01*
X96407190Y-106635497D01*
X96536865Y-106552054D01*
X96623859Y-106424734D01*
X96654464Y-106273600D01*
X96654464Y-104546400D01*
X96627897Y-104405210D01*
X96544454Y-104275535D01*
X96417134Y-104188541D01*
X96266000Y-104157936D01*
X94234000Y-104157936D01*
X94092810Y-104184503D01*
X93963135Y-104267946D01*
X93876141Y-104395266D01*
X93845536Y-104546400D01*
X92531000Y-104546400D01*
X92531000Y-100689026D01*
X93642642Y-100689026D01*
X93645291Y-100704791D01*
X93899268Y-101232036D01*
X94335680Y-101621954D01*
X94608243Y-101717296D01*
X94593943Y-101720140D01*
X94190166Y-101989935D01*
X93920371Y-102393712D01*
X93825631Y-102870000D01*
X93920371Y-103346288D01*
X94190166Y-103750065D01*
X94593943Y-104019860D01*
X95070231Y-104114600D01*
X95429769Y-104114600D01*
X95906057Y-104019860D01*
X96309834Y-103750065D01*
X96579629Y-103346288D01*
X96674369Y-102870000D01*
X96579629Y-102393712D01*
X96309834Y-101989935D01*
X95906057Y-101720140D01*
X95891757Y-101717296D01*
X96164320Y-101621954D01*
X96600732Y-101232036D01*
X96854709Y-100704791D01*
X96857358Y-100689026D01*
X96736217Y-100457000D01*
X95377000Y-100457000D01*
X95377000Y-100477000D01*
X95123000Y-100477000D01*
X95123000Y-100457000D01*
X93763783Y-100457000D01*
X93642642Y-100689026D01*
X92531000Y-100689026D01*
X92531000Y-99970974D01*
X93642642Y-99970974D01*
X93763783Y-100203000D01*
X95123000Y-100203000D01*
X95123000Y-100183000D01*
X95377000Y-100183000D01*
X95377000Y-100203000D01*
X96736217Y-100203000D01*
X96857358Y-99970974D01*
X96854709Y-99955209D01*
X96600732Y-99427964D01*
X96164320Y-99038046D01*
X95891757Y-98942704D01*
X95906057Y-98939860D01*
X96309834Y-98670065D01*
X96579629Y-98266288D01*
X96674369Y-97790000D01*
X96579629Y-97313712D01*
X96309834Y-96909935D01*
X95906057Y-96640140D01*
X95429769Y-96545400D01*
X95070231Y-96545400D01*
X94593943Y-96640140D01*
X94190166Y-96909935D01*
X93920371Y-97313712D01*
X93825631Y-97790000D01*
X93920371Y-98266288D01*
X94190166Y-98670065D01*
X94593943Y-98939860D01*
X94608243Y-98942704D01*
X94335680Y-99038046D01*
X93899268Y-99427964D01*
X93645291Y-99955209D01*
X93642642Y-99970974D01*
X92531000Y-99970974D01*
X92531000Y-92980000D01*
X112911536Y-92980000D01*
X112911536Y-94980000D01*
X112938103Y-95121190D01*
X113021546Y-95250865D01*
X113148866Y-95337859D01*
X113300000Y-95368464D01*
X115300000Y-95368464D01*
X115441190Y-95341897D01*
X115570865Y-95258454D01*
X115657859Y-95131134D01*
X115688464Y-94980000D01*
X115688464Y-92980000D01*
X115661897Y-92838810D01*
X115578454Y-92709135D01*
X115451134Y-92622141D01*
X115300000Y-92591536D01*
X115101187Y-92591536D01*
X115470072Y-92223295D01*
X115680759Y-91715903D01*
X115681239Y-91166507D01*
X115471437Y-90658749D01*
X115083295Y-90269928D01*
X114575903Y-90059241D01*
X114026507Y-90058761D01*
X113518749Y-90268563D01*
X113129928Y-90656705D01*
X112919241Y-91164097D01*
X112918761Y-91713493D01*
X113128563Y-92221251D01*
X113498201Y-92591536D01*
X113300000Y-92591536D01*
X113158810Y-92618103D01*
X113029135Y-92701546D01*
X112942141Y-92828866D01*
X112911536Y-92980000D01*
X92531000Y-92980000D01*
X92531000Y-76024128D01*
X96540176Y-76024128D01*
X96666358Y-76329511D01*
X96899800Y-76563361D01*
X97204963Y-76690075D01*
X97535388Y-76690364D01*
X97840771Y-76564182D01*
X98074621Y-76330740D01*
X98201335Y-76025577D01*
X98201624Y-75695152D01*
X98075442Y-75389769D01*
X97842000Y-75155919D01*
X97536837Y-75029205D01*
X97206412Y-75028916D01*
X96901029Y-75155098D01*
X96667179Y-75388540D01*
X96540465Y-75693703D01*
X96540176Y-76024128D01*
X92531000Y-76024128D01*
X92531000Y-71624848D01*
X96540176Y-71624848D01*
X96666358Y-71930231D01*
X96899800Y-72164081D01*
X97204963Y-72290795D01*
X97535388Y-72291084D01*
X97840771Y-72164902D01*
X98074621Y-71931460D01*
X98201335Y-71626297D01*
X98201624Y-71295872D01*
X98075442Y-70990489D01*
X97842000Y-70756639D01*
X97536837Y-70629925D01*
X97206412Y-70629636D01*
X96901029Y-70755818D01*
X96667179Y-70989260D01*
X96540465Y-71294423D01*
X96540176Y-71624848D01*
X92531000Y-71624848D01*
X92531000Y-65412865D01*
X108538882Y-65412865D01*
X108642339Y-65663252D01*
X108833741Y-65854987D01*
X109083946Y-65958882D01*
X109354865Y-65959118D01*
X109605252Y-65855661D01*
X109796987Y-65664259D01*
X109847318Y-65543050D01*
X113160368Y-62230000D01*
X115571017Y-62230000D01*
X115665757Y-62706288D01*
X115935552Y-63110065D01*
X116339329Y-63379860D01*
X116815617Y-63474600D01*
X116864383Y-63474600D01*
X117340671Y-63379860D01*
X117744448Y-63110065D01*
X118014243Y-62706288D01*
X118108983Y-62230000D01*
X118111017Y-62230000D01*
X118205757Y-62706288D01*
X118475552Y-63110065D01*
X118879329Y-63379860D01*
X119355617Y-63474600D01*
X119404383Y-63474600D01*
X119880671Y-63379860D01*
X120284448Y-63110065D01*
X120442939Y-62872865D01*
X122000882Y-62872865D01*
X122051000Y-62994161D01*
X122051000Y-65275818D01*
X122001118Y-65395946D01*
X122000882Y-65666865D01*
X122104339Y-65917252D01*
X122295741Y-66108987D01*
X122545946Y-66212882D01*
X122816865Y-66213118D01*
X123067252Y-66109661D01*
X123258987Y-65918259D01*
X123362882Y-65668054D01*
X123363118Y-65397135D01*
X123313000Y-65275839D01*
X123313000Y-62994182D01*
X123362882Y-62874054D01*
X123363118Y-62603135D01*
X123259661Y-62352748D01*
X123068259Y-62161013D01*
X122818054Y-62057118D01*
X122547135Y-62056882D01*
X122296748Y-62160339D01*
X122105013Y-62351741D01*
X122001118Y-62601946D01*
X122000882Y-62872865D01*
X120442939Y-62872865D01*
X120554243Y-62706288D01*
X120648983Y-62230000D01*
X120554243Y-61753712D01*
X120284448Y-61349935D01*
X119880671Y-61080140D01*
X119404383Y-60985400D01*
X119355617Y-60985400D01*
X118879329Y-61080140D01*
X118475552Y-61349935D01*
X118205757Y-61753712D01*
X118111017Y-62230000D01*
X118108983Y-62230000D01*
X118014243Y-61753712D01*
X117744448Y-61349935D01*
X117340671Y-61080140D01*
X116864383Y-60985400D01*
X116815617Y-60985400D01*
X116339329Y-61080140D01*
X115935552Y-61349935D01*
X115665757Y-61753712D01*
X115571017Y-62230000D01*
X113160368Y-62230000D01*
X115069369Y-60321000D01*
X115587936Y-60321000D01*
X115587936Y-60553600D01*
X115614503Y-60694790D01*
X115697946Y-60824465D01*
X115825266Y-60911459D01*
X115976400Y-60942064D01*
X117703600Y-60942064D01*
X117844790Y-60915497D01*
X117974465Y-60832054D01*
X118061459Y-60704734D01*
X118092064Y-60553600D01*
X118092064Y-59690000D01*
X118111017Y-59690000D01*
X118205757Y-60166288D01*
X118475552Y-60570065D01*
X118879329Y-60839860D01*
X119355617Y-60934600D01*
X119404383Y-60934600D01*
X119880671Y-60839860D01*
X120109572Y-60686913D01*
X131229816Y-60686913D01*
X131423046Y-61239320D01*
X131812964Y-61675732D01*
X132340209Y-61929709D01*
X132355974Y-61932358D01*
X132588000Y-61811217D01*
X132588000Y-60452000D01*
X131374076Y-60452000D01*
X131229816Y-60686913D01*
X120109572Y-60686913D01*
X120284448Y-60570065D01*
X120554243Y-60166288D01*
X120594662Y-59963087D01*
X131229816Y-59963087D01*
X131374076Y-60198000D01*
X132588000Y-60198000D01*
X132588000Y-58838783D01*
X132355974Y-58717642D01*
X132340209Y-58720291D01*
X131812964Y-58974268D01*
X131423046Y-59410680D01*
X131229816Y-59963087D01*
X120594662Y-59963087D01*
X120648983Y-59690000D01*
X120554243Y-59213712D01*
X120284448Y-58809935D01*
X119880671Y-58540140D01*
X119404383Y-58445400D01*
X119355617Y-58445400D01*
X118879329Y-58540140D01*
X118475552Y-58809935D01*
X118205757Y-59213712D01*
X118111017Y-59690000D01*
X118092064Y-59690000D01*
X118092064Y-58826400D01*
X118065497Y-58685210D01*
X117982054Y-58555535D01*
X117854734Y-58468541D01*
X117703600Y-58437936D01*
X115976400Y-58437936D01*
X115835210Y-58464503D01*
X115705535Y-58547946D01*
X115618541Y-58675266D01*
X115587936Y-58826400D01*
X115587936Y-59059000D01*
X114808000Y-59059000D01*
X114606589Y-59099063D01*
X114566526Y-59107032D01*
X114361815Y-59243816D01*
X108954965Y-64650667D01*
X108834748Y-64700339D01*
X108643013Y-64891741D01*
X108539118Y-65141946D01*
X108538882Y-65412865D01*
X92531000Y-65412865D01*
X92531000Y-61987316D01*
X95173657Y-61987316D01*
X95474611Y-62715680D01*
X96031389Y-63273431D01*
X96759226Y-63575655D01*
X97547316Y-63576343D01*
X98275680Y-63275389D01*
X98833431Y-62718611D01*
X99135655Y-61990774D01*
X99135658Y-61986215D01*
X104563390Y-61986215D01*
X104640656Y-62234976D01*
X105187131Y-62432340D01*
X105767535Y-62405553D01*
X106179344Y-62234976D01*
X106256610Y-61986215D01*
X105410000Y-61139605D01*
X104563390Y-61986215D01*
X99135658Y-61986215D01*
X99136343Y-61202684D01*
X98943981Y-60737131D01*
X103937660Y-60737131D01*
X103964447Y-61317535D01*
X104135024Y-61729344D01*
X104383785Y-61806610D01*
X105230395Y-60960000D01*
X105589605Y-60960000D01*
X106436215Y-61806610D01*
X106684976Y-61729344D01*
X106736036Y-61587966D01*
X106736036Y-61785500D01*
X106762603Y-61926690D01*
X106846046Y-62056365D01*
X106973366Y-62143359D01*
X107124500Y-62173964D01*
X108775500Y-62173964D01*
X108916690Y-62147397D01*
X109046365Y-62063954D01*
X109133359Y-61936634D01*
X109163964Y-61785500D01*
X109163964Y-60134500D01*
X109137397Y-59993310D01*
X109053954Y-59863635D01*
X108926634Y-59776641D01*
X108775500Y-59746036D01*
X107124500Y-59746036D01*
X106983310Y-59772603D01*
X106853635Y-59856046D01*
X106766641Y-59983366D01*
X106736036Y-60134500D01*
X106736036Y-60313926D01*
X106684976Y-60190656D01*
X106436215Y-60113390D01*
X105589605Y-60960000D01*
X105230395Y-60960000D01*
X104383785Y-60113390D01*
X104135024Y-60190656D01*
X103937660Y-60737131D01*
X98943981Y-60737131D01*
X98835389Y-60474320D01*
X98295797Y-59933785D01*
X104563390Y-59933785D01*
X105410000Y-60780395D01*
X106256610Y-59933785D01*
X106179344Y-59685024D01*
X105632869Y-59487660D01*
X105052465Y-59514447D01*
X104640656Y-59685024D01*
X104563390Y-59933785D01*
X98295797Y-59933785D01*
X98278611Y-59916569D01*
X97550774Y-59614345D01*
X96762684Y-59613657D01*
X96034320Y-59914611D01*
X95476569Y-60471389D01*
X95174345Y-61199226D01*
X95173657Y-61987316D01*
X92531000Y-61987316D01*
X92531000Y-56971000D01*
X131445000Y-56971000D01*
X131619504Y-56936289D01*
X131767441Y-56837441D01*
X131866289Y-56689504D01*
X131875738Y-56642000D01*
X151334262Y-56642000D01*
X151343711Y-56689504D01*
X151343711Y-56689504D01*
G37*
X151343711Y-56689504D02*
X151442559Y-56837441D01*
X151590496Y-56936289D01*
X151765000Y-56971000D01*
X190679000Y-56971000D01*
X190679000Y-134799000D01*
X92531000Y-134799000D01*
X92531000Y-130567316D01*
X95173657Y-130567316D01*
X95474611Y-131295680D01*
X96031389Y-131853431D01*
X96759226Y-132155655D01*
X97547316Y-132156343D01*
X98275680Y-131855389D01*
X98833431Y-131298611D01*
X99135655Y-130570774D01*
X99136200Y-129946400D01*
X104157936Y-129946400D01*
X104157936Y-131673600D01*
X104184503Y-131814790D01*
X104267946Y-131944465D01*
X104395266Y-132031459D01*
X104546400Y-132062064D01*
X106273600Y-132062064D01*
X106414790Y-132035497D01*
X106544465Y-131952054D01*
X106631459Y-131824734D01*
X106662064Y-131673600D01*
X106662064Y-129946400D01*
X106635497Y-129805210D01*
X106552054Y-129675535D01*
X106424734Y-129588541D01*
X106273600Y-129557936D01*
X104546400Y-129557936D01*
X104405210Y-129584503D01*
X104275535Y-129667946D01*
X104188541Y-129795266D01*
X104157936Y-129946400D01*
X99136200Y-129946400D01*
X99136343Y-129782684D01*
X98835389Y-129054320D01*
X98278611Y-128496569D01*
X97550774Y-128194345D01*
X96762684Y-128193657D01*
X96034320Y-128494611D01*
X95476569Y-129051389D01*
X95174345Y-129779226D01*
X95173657Y-130567316D01*
X92531000Y-130567316D01*
X92531000Y-121056400D01*
X93845536Y-121056400D01*
X93845536Y-122783600D01*
X93872103Y-122924790D01*
X93955546Y-123054465D01*
X94082866Y-123141459D01*
X94234000Y-123172064D01*
X96266000Y-123172064D01*
X96407190Y-123145497D01*
X96536865Y-123062054D01*
X96623859Y-122934734D01*
X96654464Y-122783600D01*
X96654464Y-121056400D01*
X96627897Y-120915210D01*
X96544454Y-120785535D01*
X96417134Y-120698541D01*
X96266000Y-120667936D01*
X94234000Y-120667936D01*
X94092810Y-120694503D01*
X93963135Y-120777946D01*
X93876141Y-120905266D01*
X93845536Y-121056400D01*
X92531000Y-121056400D01*
X92531000Y-119380000D01*
X93825631Y-119380000D01*
X93920371Y-119856288D01*
X94190166Y-120260065D01*
X94593943Y-120529860D01*
X95070231Y-120624600D01*
X95429769Y-120624600D01*
X95906057Y-120529860D01*
X96309834Y-120260065D01*
X96579629Y-119856288D01*
X96647542Y-119514865D01*
X99648882Y-119514865D01*
X99752339Y-119765252D01*
X99943741Y-119956987D01*
X100193946Y-120060882D01*
X100464865Y-120061118D01*
X100715252Y-119957661D01*
X100787038Y-119886000D01*
X103378000Y-119886000D01*
X103571638Y-119847483D01*
X103735796Y-119737796D01*
X104428561Y-119045031D01*
X104528865Y-119045118D01*
X104779000Y-118941765D01*
X104779000Y-127199132D01*
X104529935Y-127365552D01*
X104260140Y-127769329D01*
X104165400Y-128245617D01*
X104165400Y-128294383D01*
X104260140Y-128770671D01*
X104529935Y-129174448D01*
X104933712Y-129444243D01*
X105410000Y-129538983D01*
X105886288Y-129444243D01*
X106290065Y-129174448D01*
X106559860Y-128770671D01*
X106654600Y-128294383D01*
X106654600Y-128245617D01*
X106705400Y-128245617D01*
X106705400Y-128294383D01*
X106800140Y-128770671D01*
X107069935Y-129174448D01*
X107473712Y-129444243D01*
X107950000Y-129538983D01*
X108426288Y-129444243D01*
X108830065Y-129174448D01*
X109099860Y-128770671D01*
X109100324Y-128768338D01*
X109283179Y-129158490D01*
X109701152Y-129540000D01*
X109283179Y-129921510D01*
X109100324Y-130311662D01*
X109099860Y-130309329D01*
X108830065Y-129905552D01*
X108426288Y-129635757D01*
X107950000Y-129541017D01*
X107473712Y-129635757D01*
X107069935Y-129905552D01*
X106800140Y-130309329D01*
X106705400Y-130785617D01*
X106705400Y-130834383D01*
X106800140Y-131310671D01*
X107069935Y-131714448D01*
X107473712Y-131984243D01*
X107950000Y-132078983D01*
X108426288Y-131984243D01*
X108830065Y-131714448D01*
X109099860Y-131310671D01*
X109100324Y-131308338D01*
X109283179Y-131698490D01*
X109715053Y-132092688D01*
X110130974Y-132264958D01*
X110363000Y-132143817D01*
X110363000Y-130937000D01*
X110617000Y-130937000D01*
X110617000Y-132143817D01*
X110849026Y-132264958D01*
X111264947Y-132092688D01*
X111696821Y-131698490D01*
X111944968Y-131169027D01*
X111824469Y-130937000D01*
X110617000Y-130937000D01*
X110363000Y-130937000D01*
X110343000Y-130937000D01*
X110343000Y-130683000D01*
X110363000Y-130683000D01*
X110363000Y-128397000D01*
X110617000Y-128397000D01*
X110617000Y-130683000D01*
X111824469Y-130683000D01*
X111944968Y-130450973D01*
X111696821Y-129921510D01*
X111278848Y-129540000D01*
X111696821Y-129158490D01*
X111944968Y-128629027D01*
X111906913Y-128555750D01*
X115341400Y-128555750D01*
X115341400Y-129259910D01*
X115438073Y-129493299D01*
X115616702Y-129671927D01*
X115850091Y-129768600D01*
X116177007Y-129768600D01*
X115935552Y-129929935D01*
X115665757Y-130333712D01*
X115571017Y-130810000D01*
X115665757Y-131286288D01*
X115935552Y-131690065D01*
X116339329Y-131959860D01*
X116815617Y-132054600D01*
X116864383Y-132054600D01*
X117340671Y-131959860D01*
X117744448Y-131690065D01*
X118014243Y-131286288D01*
X118108983Y-130810000D01*
X118014243Y-130333712D01*
X117744448Y-129929935D01*
X117502993Y-129768600D01*
X117829909Y-129768600D01*
X118063298Y-129671927D01*
X118241927Y-129493299D01*
X118338600Y-129259910D01*
X118338600Y-128945102D01*
X118475552Y-129150065D01*
X118874000Y-129416299D01*
X118874000Y-129663701D01*
X118475552Y-129929935D01*
X118205757Y-130333712D01*
X118111017Y-130810000D01*
X118205757Y-131286288D01*
X118475552Y-131690065D01*
X118879329Y-131959860D01*
X119355617Y-132054600D01*
X119404383Y-132054600D01*
X119841006Y-131967750D01*
X119948362Y-132039483D01*
X120142000Y-132078000D01*
X141786969Y-132078000D01*
X141663013Y-132201741D01*
X141559118Y-132451946D01*
X141558882Y-132722865D01*
X141662339Y-132973252D01*
X141853741Y-133164987D01*
X142103946Y-133268882D01*
X142374865Y-133269118D01*
X142625252Y-133165661D01*
X142697038Y-133094000D01*
X163576000Y-133094000D01*
X163769638Y-133055483D01*
X163933796Y-132945796D01*
X164187796Y-132691796D01*
X164297483Y-132527638D01*
X164336000Y-132334000D01*
X164336000Y-130567316D01*
X184073657Y-130567316D01*
X184374611Y-131295680D01*
X184931389Y-131853431D01*
X185659226Y-132155655D01*
X186447316Y-132156343D01*
X187175680Y-131855389D01*
X187733431Y-131298611D01*
X188035655Y-130570774D01*
X188036343Y-129782684D01*
X187735389Y-129054320D01*
X187178611Y-128496569D01*
X186450774Y-128194345D01*
X185662684Y-128193657D01*
X184934320Y-128494611D01*
X184376569Y-129051389D01*
X184074345Y-129779226D01*
X184073657Y-130567316D01*
X164336000Y-130567316D01*
X164336000Y-119593784D01*
X180530313Y-119593784D01*
X180694311Y-119990689D01*
X180997714Y-120294622D01*
X181394332Y-120459313D01*
X181823784Y-120459687D01*
X182175918Y-120314188D01*
X185935417Y-120314188D01*
X185997071Y-120549800D01*
X186497480Y-120725927D01*
X187027199Y-120697148D01*
X187382929Y-120549800D01*
X187444583Y-120314188D01*
X186690000Y-119559605D01*
X185935417Y-120314188D01*
X182175918Y-120314188D01*
X182220689Y-120295689D01*
X182524622Y-119992286D01*
X182689313Y-119595668D01*
X182689668Y-119187480D01*
X185344073Y-119187480D01*
X185372852Y-119717199D01*
X185520200Y-120072929D01*
X185755812Y-120134583D01*
X186510395Y-119380000D01*
X186869605Y-119380000D01*
X187624188Y-120134583D01*
X187859800Y-120072929D01*
X188035927Y-119572520D01*
X188007148Y-119042801D01*
X187859800Y-118687071D01*
X187624188Y-118625417D01*
X186869605Y-119380000D01*
X186510395Y-119380000D01*
X185755812Y-118625417D01*
X185520200Y-118687071D01*
X185344073Y-119187480D01*
X182689668Y-119187480D01*
X182689687Y-119166216D01*
X182525689Y-118769311D01*
X182222286Y-118465378D01*
X182175167Y-118445812D01*
X185935417Y-118445812D01*
X186690000Y-119200395D01*
X187444583Y-118445812D01*
X187382929Y-118210200D01*
X186882520Y-118034073D01*
X186352801Y-118062852D01*
X185997071Y-118210200D01*
X185935417Y-118445812D01*
X182175167Y-118445812D01*
X181825668Y-118300687D01*
X181396216Y-118300313D01*
X180999311Y-118464311D01*
X180695378Y-118767714D01*
X180530687Y-119164332D01*
X180530313Y-119593784D01*
X164336000Y-119593784D01*
X164336000Y-111973784D01*
X180530313Y-111973784D01*
X180694311Y-112370689D01*
X180997714Y-112674622D01*
X181394332Y-112839313D01*
X181823784Y-112839687D01*
X182175918Y-112694188D01*
X185935417Y-112694188D01*
X185997071Y-112929800D01*
X186497480Y-113105927D01*
X187027199Y-113077148D01*
X187382929Y-112929800D01*
X187444583Y-112694188D01*
X186690000Y-111939605D01*
X185935417Y-112694188D01*
X182175918Y-112694188D01*
X182220689Y-112675689D01*
X182524622Y-112372286D01*
X182689313Y-111975668D01*
X182689668Y-111567480D01*
X185344073Y-111567480D01*
X185372852Y-112097199D01*
X185520200Y-112452929D01*
X185755812Y-112514583D01*
X186510395Y-111760000D01*
X186869605Y-111760000D01*
X187624188Y-112514583D01*
X187859800Y-112452929D01*
X188035927Y-111952520D01*
X188007148Y-111422801D01*
X187859800Y-111067071D01*
X187624188Y-111005417D01*
X186869605Y-111760000D01*
X186510395Y-111760000D01*
X185755812Y-111005417D01*
X185520200Y-111067071D01*
X185344073Y-111567480D01*
X182689668Y-111567480D01*
X182689687Y-111546216D01*
X182525689Y-111149311D01*
X182222286Y-110845378D01*
X182175167Y-110825812D01*
X185935417Y-110825812D01*
X186690000Y-111580395D01*
X187444583Y-110825812D01*
X187382929Y-110590200D01*
X186882520Y-110414073D01*
X186352801Y-110442852D01*
X185997071Y-110590200D01*
X185935417Y-110825812D01*
X182175167Y-110825812D01*
X181825668Y-110680687D01*
X181396216Y-110680313D01*
X180999311Y-110844311D01*
X180695378Y-111147714D01*
X180530687Y-111544332D01*
X180530313Y-111973784D01*
X164336000Y-111973784D01*
X164336000Y-90492939D01*
X181249037Y-90492939D01*
X181496771Y-91092499D01*
X181955088Y-91551617D01*
X182554215Y-91800396D01*
X183202939Y-91800963D01*
X183802499Y-91553229D01*
X184261617Y-91094912D01*
X184510396Y-90495785D01*
X184510963Y-89847061D01*
X184263229Y-89247501D01*
X183804912Y-88788383D01*
X183205785Y-88539604D01*
X182557061Y-88539037D01*
X181957501Y-88786771D01*
X181498383Y-89245088D01*
X181249604Y-89844215D01*
X181249037Y-90492939D01*
X164336000Y-90492939D01*
X164336000Y-82042000D01*
X164297483Y-81848362D01*
X164187796Y-81684204D01*
X164003031Y-81499439D01*
X164003118Y-81399135D01*
X163899661Y-81148748D01*
X163708259Y-80957013D01*
X163587491Y-80906865D01*
X165942882Y-80906865D01*
X166046339Y-81157252D01*
X166118000Y-81229038D01*
X166118000Y-84124877D01*
X166047013Y-84195741D01*
X165943118Y-84445946D01*
X165942882Y-84716865D01*
X166046339Y-84967252D01*
X166237741Y-85158987D01*
X166487946Y-85262882D01*
X166758865Y-85263118D01*
X167009252Y-85159661D01*
X167200987Y-84968259D01*
X167304882Y-84718054D01*
X167305118Y-84447135D01*
X167201661Y-84196748D01*
X167130000Y-84124962D01*
X167130000Y-81343089D01*
X181726517Y-81343089D01*
X181855725Y-81635859D01*
X182555883Y-81904071D01*
X183305384Y-81883928D01*
X183904275Y-81635859D01*
X184033483Y-81343089D01*
X182880000Y-80189605D01*
X181726517Y-81343089D01*
X167130000Y-81343089D01*
X167130000Y-81229123D01*
X167200987Y-81158259D01*
X167304882Y-80908054D01*
X167305118Y-80637135D01*
X167201661Y-80386748D01*
X167010259Y-80195013D01*
X166889491Y-80144865D01*
X168736882Y-80144865D01*
X168840339Y-80395252D01*
X169031741Y-80586987D01*
X169281946Y-80690882D01*
X169552865Y-80691118D01*
X169803252Y-80587661D01*
X169994987Y-80396259D01*
X170098882Y-80146054D01*
X170098970Y-80044622D01*
X170457709Y-79685883D01*
X180985929Y-79685883D01*
X181006072Y-80435384D01*
X181254141Y-81034275D01*
X181546911Y-81163483D01*
X182700395Y-80010000D01*
X183059605Y-80010000D01*
X184213089Y-81163483D01*
X184505859Y-81034275D01*
X184774071Y-80334117D01*
X184753928Y-79584616D01*
X184505859Y-78985725D01*
X184213089Y-78856517D01*
X183059605Y-80010000D01*
X182700395Y-80010000D01*
X181546911Y-78856517D01*
X181254141Y-78985725D01*
X180985929Y-79685883D01*
X170457709Y-79685883D01*
X171466681Y-78676911D01*
X181726517Y-78676911D01*
X182880000Y-79830395D01*
X184033483Y-78676911D01*
X183904275Y-78384141D01*
X183204117Y-78115929D01*
X182454616Y-78136072D01*
X181855725Y-78384141D01*
X181726517Y-78676911D01*
X171466681Y-78676911D01*
X175040561Y-75103031D01*
X175140865Y-75103118D01*
X175391252Y-74999661D01*
X175582987Y-74808259D01*
X175686882Y-74558054D01*
X175687118Y-74287135D01*
X175583661Y-74036748D01*
X175392259Y-73845013D01*
X175142054Y-73741118D01*
X174871135Y-73740882D01*
X174620748Y-73844339D01*
X174429013Y-74035741D01*
X174325118Y-74285946D01*
X174325030Y-74387378D01*
X169383439Y-79328969D01*
X169283135Y-79328882D01*
X169032748Y-79432339D01*
X168841013Y-79623741D01*
X168737118Y-79873946D01*
X168736882Y-80144865D01*
X166889491Y-80144865D01*
X166760054Y-80091118D01*
X166489135Y-80090882D01*
X166238748Y-80194339D01*
X166047013Y-80385741D01*
X165943118Y-80635946D01*
X165942882Y-80906865D01*
X163587491Y-80906865D01*
X163458054Y-80853118D01*
X163187135Y-80852882D01*
X162936748Y-80956339D01*
X162745013Y-81147741D01*
X162641118Y-81397946D01*
X162640882Y-81668865D01*
X162744339Y-81919252D01*
X162935741Y-82110987D01*
X163185946Y-82214882D01*
X163287378Y-82214970D01*
X163324000Y-82251592D01*
X163324000Y-132082000D01*
X142697123Y-132082000D01*
X142693130Y-132078000D01*
X142748000Y-132078000D01*
X142941638Y-132039483D01*
X143002224Y-131999001D01*
X143136865Y-131999118D01*
X143387252Y-131895661D01*
X143578987Y-131704259D01*
X143682882Y-131454054D01*
X143683118Y-131183135D01*
X143579661Y-130932748D01*
X143388259Y-130741013D01*
X143138054Y-130637118D01*
X142867135Y-130636882D01*
X142616748Y-130740339D01*
X142425013Y-130931741D01*
X142369263Y-131066000D01*
X120598061Y-131066000D01*
X120648983Y-130810000D01*
X120554243Y-130333712D01*
X120284448Y-129929935D01*
X119886000Y-129663701D01*
X119886000Y-129416299D01*
X120284448Y-129150065D01*
X120554243Y-128746288D01*
X120648983Y-128270000D01*
X120554243Y-127793712D01*
X120284448Y-127389935D01*
X119880671Y-127120140D01*
X119404383Y-127025400D01*
X119355617Y-127025400D01*
X118879329Y-127120140D01*
X118475552Y-127389935D01*
X118338600Y-127594898D01*
X118338600Y-127280090D01*
X118241927Y-127046701D01*
X118063298Y-126868073D01*
X117829909Y-126771400D01*
X117125750Y-126771400D01*
X116967000Y-126930150D01*
X116967000Y-128143000D01*
X116987000Y-128143000D01*
X116987000Y-128397000D01*
X116967000Y-128397000D01*
X116967000Y-128417000D01*
X116713000Y-128417000D01*
X116713000Y-128397000D01*
X115500150Y-128397000D01*
X115341400Y-128555750D01*
X111906913Y-128555750D01*
X111824469Y-128397000D01*
X110617000Y-128397000D01*
X110363000Y-128397000D01*
X110343000Y-128397000D01*
X110343000Y-128143000D01*
X110363000Y-128143000D01*
X110363000Y-126936183D01*
X110617000Y-126936183D01*
X110617000Y-128143000D01*
X111824469Y-128143000D01*
X111944968Y-127910973D01*
X111696821Y-127381510D01*
X111585708Y-127280090D01*
X115341400Y-127280090D01*
X115341400Y-127984250D01*
X115500150Y-128143000D01*
X116713000Y-128143000D01*
X116713000Y-126930150D01*
X116554250Y-126771400D01*
X115850091Y-126771400D01*
X115616702Y-126868073D01*
X115438073Y-127046701D01*
X115341400Y-127280090D01*
X111585708Y-127280090D01*
X111264947Y-126987312D01*
X110849026Y-126815042D01*
X110617000Y-126936183D01*
X110363000Y-126936183D01*
X110130974Y-126815042D01*
X109715053Y-126987312D01*
X109283179Y-127381510D01*
X109100324Y-127771662D01*
X109099860Y-127769329D01*
X108830065Y-127365552D01*
X108426288Y-127095757D01*
X107950000Y-127001017D01*
X107473712Y-127095757D01*
X107069935Y-127365552D01*
X106800140Y-127769329D01*
X106705400Y-128245617D01*
X106654600Y-128245617D01*
X106559860Y-127769329D01*
X106290065Y-127365552D01*
X106041000Y-127199132D01*
X106041000Y-115196865D01*
X113110882Y-115196865D01*
X113161000Y-115318161D01*
X113161000Y-122679818D01*
X113111118Y-122799946D01*
X113110882Y-123070865D01*
X113214339Y-123321252D01*
X113405741Y-123512987D01*
X113655946Y-123616882D01*
X113926865Y-123617118D01*
X114177252Y-123513661D01*
X114368987Y-123322259D01*
X114472882Y-123072054D01*
X114473118Y-122801135D01*
X114423000Y-122679839D01*
X114423000Y-119260865D01*
X120476882Y-119260865D01*
X120580339Y-119511252D01*
X120771741Y-119702987D01*
X121021946Y-119806882D01*
X121292865Y-119807118D01*
X121543252Y-119703661D01*
X121668000Y-119579130D01*
X121668000Y-129844877D01*
X121597013Y-129915741D01*
X121493118Y-130165946D01*
X121492882Y-130436865D01*
X121596339Y-130687252D01*
X121787741Y-130878987D01*
X122037946Y-130982882D01*
X122308865Y-130983118D01*
X122559252Y-130879661D01*
X122750987Y-130688259D01*
X122854882Y-130438054D01*
X122855118Y-130167135D01*
X122751661Y-129916748D01*
X122680000Y-129844962D01*
X122680000Y-77425592D01*
X124161592Y-75944000D01*
X125222000Y-75944000D01*
X125415638Y-75905483D01*
X125579796Y-75795796D01*
X139776137Y-61599455D01*
X139858712Y-61654629D01*
X140335000Y-61749369D01*
X140811288Y-61654629D01*
X140867014Y-61617394D01*
X126536408Y-75948000D01*
X124968000Y-75948000D01*
X124774362Y-75986517D01*
X124610204Y-76096204D01*
X123086204Y-77620204D01*
X122976517Y-77784362D01*
X122938000Y-77978000D01*
X122938000Y-128320877D01*
X122867013Y-128391741D01*
X122763118Y-128641946D01*
X122762882Y-128912865D01*
X122866339Y-129163252D01*
X123057741Y-129354987D01*
X123307946Y-129458882D01*
X123578865Y-129459118D01*
X123829252Y-129355661D01*
X124018376Y-129166865D01*
X140796882Y-129166865D01*
X140900339Y-129417252D01*
X141091741Y-129608987D01*
X141341946Y-129712882D01*
X141612865Y-129713118D01*
X141863252Y-129609661D01*
X141935038Y-129538000D01*
X152908000Y-129538000D01*
X153101638Y-129499483D01*
X153265796Y-129389796D01*
X153375483Y-129225638D01*
X153414000Y-129032000D01*
X153375483Y-128838362D01*
X153265796Y-128674204D01*
X152986628Y-128395036D01*
X155078234Y-128395036D01*
X155250142Y-128811086D01*
X155568180Y-129129679D01*
X155983929Y-129302313D01*
X156434096Y-129302706D01*
X156850146Y-129130798D01*
X157168739Y-128812760D01*
X157341373Y-128397011D01*
X157341766Y-127946844D01*
X157169858Y-127530794D01*
X156851820Y-127212201D01*
X156436071Y-127039567D01*
X155985904Y-127039174D01*
X155569854Y-127211082D01*
X155251261Y-127529120D01*
X155078627Y-127944869D01*
X155078234Y-128395036D01*
X152986628Y-128395036D01*
X152906000Y-128314408D01*
X152906000Y-123513156D01*
X155078234Y-123513156D01*
X155250142Y-123929206D01*
X155568180Y-124247799D01*
X155983929Y-124420433D01*
X156434096Y-124420826D01*
X156850146Y-124248918D01*
X157168739Y-123930880D01*
X157341373Y-123515131D01*
X157341766Y-123064964D01*
X157169858Y-122648914D01*
X156851820Y-122330321D01*
X156436071Y-122157687D01*
X155985904Y-122157294D01*
X155569854Y-122329202D01*
X155251261Y-122647240D01*
X155078627Y-123062989D01*
X155078234Y-123513156D01*
X152906000Y-123513156D01*
X152906000Y-117228865D01*
X160100882Y-117228865D01*
X160151000Y-117350161D01*
X160151000Y-129791818D01*
X160101118Y-129911946D01*
X160100882Y-130182865D01*
X160204339Y-130433252D01*
X160395741Y-130624987D01*
X160645946Y-130728882D01*
X160916865Y-130729118D01*
X161167252Y-130625661D01*
X161358987Y-130434259D01*
X161462882Y-130184054D01*
X161463118Y-129913135D01*
X161413000Y-129791839D01*
X161413000Y-117350182D01*
X161462882Y-117230054D01*
X161463118Y-116959135D01*
X161359661Y-116708748D01*
X161168259Y-116517013D01*
X160918054Y-116413118D01*
X160647135Y-116412882D01*
X160396748Y-116516339D01*
X160205013Y-116707741D01*
X160101118Y-116957946D01*
X160100882Y-117228865D01*
X152906000Y-117228865D01*
X152906000Y-116795592D01*
X159292561Y-110409031D01*
X159392865Y-110409118D01*
X159643252Y-110305661D01*
X159834987Y-110114259D01*
X159938882Y-109864054D01*
X159939118Y-109593135D01*
X159835661Y-109342748D01*
X159644259Y-109151013D01*
X159394054Y-109047118D01*
X159123135Y-109046882D01*
X158872748Y-109150339D01*
X158681013Y-109341741D01*
X158577118Y-109591946D01*
X158577030Y-109693378D01*
X152042204Y-116228204D01*
X151932517Y-116392362D01*
X151894000Y-116586000D01*
X151894000Y-128524000D01*
X151894398Y-128526000D01*
X141935123Y-128526000D01*
X141864259Y-128455013D01*
X141614054Y-128351118D01*
X141343135Y-128350882D01*
X141092748Y-128454339D01*
X140901013Y-128645741D01*
X140797118Y-128895946D01*
X140796882Y-129166865D01*
X124018376Y-129166865D01*
X124020987Y-129164259D01*
X124124882Y-128914054D01*
X124125118Y-128643135D01*
X124021661Y-128392748D01*
X123950000Y-128320962D01*
X123950000Y-100464865D01*
X124032882Y-100464865D01*
X124136339Y-100715252D01*
X124327741Y-100906987D01*
X124577946Y-101010882D01*
X124848865Y-101011118D01*
X124883647Y-100996747D01*
X124795118Y-101209946D01*
X124795030Y-101311378D01*
X124356204Y-101750204D01*
X124246517Y-101914362D01*
X124208000Y-102108000D01*
X124208000Y-127050877D01*
X124137013Y-127121741D01*
X124033118Y-127371946D01*
X124032882Y-127642865D01*
X124136339Y-127893252D01*
X124327741Y-128084987D01*
X124577946Y-128188882D01*
X124848865Y-128189118D01*
X125099252Y-128085661D01*
X125290987Y-127894259D01*
X125394882Y-127644054D01*
X125395118Y-127373135D01*
X125291661Y-127122748D01*
X125220000Y-127050962D01*
X125220000Y-107830865D01*
X125556882Y-107830865D01*
X125660339Y-108081252D01*
X125732000Y-108153038D01*
X125732000Y-115620877D01*
X125661013Y-115691741D01*
X125557118Y-115941946D01*
X125556882Y-116212865D01*
X125660339Y-116463252D01*
X125851741Y-116654987D01*
X126101946Y-116758882D01*
X126372865Y-116759118D01*
X126623252Y-116655661D01*
X126814987Y-116464259D01*
X126918882Y-116214054D01*
X126919118Y-115943135D01*
X126815661Y-115692748D01*
X126744000Y-115620962D01*
X126744000Y-114180865D01*
X130128882Y-114180865D01*
X130232339Y-114431252D01*
X130304000Y-114503038D01*
X130304000Y-123494877D01*
X130233013Y-123565741D01*
X130129118Y-123815946D01*
X130128882Y-124086865D01*
X130232339Y-124337252D01*
X130423741Y-124528987D01*
X130673946Y-124632882D01*
X130944865Y-124633118D01*
X131195252Y-124529661D01*
X131386987Y-124338259D01*
X131490882Y-124088054D01*
X131491118Y-123817135D01*
X131387661Y-123566748D01*
X131316000Y-123494962D01*
X131316000Y-118752865D01*
X133938882Y-118752865D01*
X134042339Y-119003252D01*
X134233741Y-119194987D01*
X134483946Y-119298882D01*
X134754865Y-119299118D01*
X135005252Y-119195661D01*
X135077038Y-119124000D01*
X142798877Y-119124000D01*
X142869741Y-119194987D01*
X143119946Y-119298882D01*
X143390865Y-119299118D01*
X143641252Y-119195661D01*
X143832987Y-119004259D01*
X143936882Y-118754054D01*
X143937118Y-118483135D01*
X143833661Y-118232748D01*
X143642259Y-118041013D01*
X143392054Y-117937118D01*
X143121135Y-117936882D01*
X142870748Y-118040339D01*
X142798962Y-118112000D01*
X139391031Y-118112000D01*
X139514987Y-117988259D01*
X139618882Y-117738054D01*
X139618970Y-117636622D01*
X148545592Y-108710000D01*
X160578877Y-108710000D01*
X160649741Y-108780987D01*
X160899946Y-108884882D01*
X161170865Y-108885118D01*
X161421252Y-108781661D01*
X161612987Y-108590259D01*
X161716882Y-108340054D01*
X161717118Y-108069135D01*
X161613661Y-107818748D01*
X161422259Y-107627013D01*
X161172054Y-107523118D01*
X160901135Y-107522882D01*
X160650748Y-107626339D01*
X160578962Y-107698000D01*
X148336000Y-107698000D01*
X148142362Y-107736517D01*
X147978204Y-107846204D01*
X138903439Y-116920969D01*
X138803135Y-116920882D01*
X138552748Y-117024339D01*
X138361013Y-117215741D01*
X138257118Y-117465946D01*
X138256882Y-117736865D01*
X138360339Y-117987252D01*
X138484870Y-118112000D01*
X135077123Y-118112000D01*
X135006259Y-118041013D01*
X134756054Y-117937118D01*
X134485135Y-117936882D01*
X134234748Y-118040339D01*
X134043013Y-118231741D01*
X133939118Y-118481946D01*
X133938882Y-118752865D01*
X131316000Y-118752865D01*
X131316000Y-114503123D01*
X131386987Y-114432259D01*
X131490882Y-114182054D01*
X131491118Y-113911135D01*
X131387661Y-113660748D01*
X131196259Y-113469013D01*
X130946054Y-113365118D01*
X130675135Y-113364882D01*
X130424748Y-113468339D01*
X130233013Y-113659741D01*
X130129118Y-113909946D01*
X130128882Y-114180865D01*
X126744000Y-114180865D01*
X126744000Y-108153123D01*
X126814987Y-108082259D01*
X126918882Y-107832054D01*
X126919118Y-107561135D01*
X126815661Y-107310748D01*
X126624259Y-107119013D01*
X126374054Y-107015118D01*
X126103135Y-107014882D01*
X125852748Y-107118339D01*
X125661013Y-107309741D01*
X125557118Y-107559946D01*
X125556882Y-107830865D01*
X125220000Y-107830865D01*
X125220000Y-102317592D01*
X125510561Y-102027031D01*
X125610865Y-102027118D01*
X125861252Y-101923661D01*
X126052987Y-101732259D01*
X126156882Y-101482054D01*
X126157118Y-101211135D01*
X126053661Y-100960748D01*
X125929130Y-100836000D01*
X132384877Y-100836000D01*
X132455741Y-100906987D01*
X132705946Y-101010882D01*
X132976865Y-101011118D01*
X133227252Y-100907661D01*
X133352000Y-100783130D01*
X133352000Y-104698877D01*
X133281013Y-104769741D01*
X133177118Y-105019946D01*
X133176882Y-105290865D01*
X133280339Y-105541252D01*
X133404870Y-105666000D01*
X133051592Y-105666000D01*
X129205031Y-101819439D01*
X129205118Y-101719135D01*
X129101661Y-101468748D01*
X128910259Y-101277013D01*
X128660054Y-101173118D01*
X128389135Y-101172882D01*
X128138748Y-101276339D01*
X127947013Y-101467741D01*
X127843118Y-101717946D01*
X127842882Y-101988865D01*
X127946339Y-102239252D01*
X128137741Y-102430987D01*
X128387946Y-102534882D01*
X128489378Y-102534970D01*
X132484204Y-106529796D01*
X132648362Y-106639483D01*
X132842000Y-106678000D01*
X135686877Y-106678000D01*
X135757741Y-106748987D01*
X136007946Y-106852882D01*
X136278865Y-106853118D01*
X136371445Y-106814865D01*
X142320882Y-106814865D01*
X142424339Y-107065252D01*
X142615741Y-107256987D01*
X142865946Y-107360882D01*
X143136865Y-107361118D01*
X143387252Y-107257661D01*
X143459038Y-107186000D01*
X161594877Y-107186000D01*
X161665741Y-107256987D01*
X161915946Y-107360882D01*
X162186865Y-107361118D01*
X162437252Y-107257661D01*
X162628987Y-107066259D01*
X162732882Y-106816054D01*
X162733118Y-106545135D01*
X162629661Y-106294748D01*
X162438259Y-106103013D01*
X162188054Y-105999118D01*
X161917135Y-105998882D01*
X161666748Y-106102339D01*
X161594962Y-106174000D01*
X143459123Y-106174000D01*
X143388259Y-106103013D01*
X143138054Y-105999118D01*
X142867135Y-105998882D01*
X142616748Y-106102339D01*
X142425013Y-106293741D01*
X142321118Y-106543946D01*
X142320882Y-106814865D01*
X136371445Y-106814865D01*
X136529252Y-106749661D01*
X136720987Y-106558259D01*
X136824882Y-106308054D01*
X136825118Y-106037135D01*
X136721661Y-105786748D01*
X136530259Y-105595013D01*
X136280054Y-105491118D01*
X136009135Y-105490882D01*
X135758748Y-105594339D01*
X135686962Y-105666000D01*
X134311031Y-105666000D01*
X134434987Y-105542259D01*
X134538882Y-105292054D01*
X134539118Y-105021135D01*
X134435661Y-104770748D01*
X134364000Y-104698962D01*
X134364000Y-100210865D01*
X143336882Y-100210865D01*
X143440339Y-100461252D01*
X143631741Y-100652987D01*
X143881946Y-100756882D01*
X144152865Y-100757118D01*
X144403252Y-100653661D01*
X144475038Y-100582000D01*
X159562877Y-100582000D01*
X159633741Y-100652987D01*
X159883946Y-100756882D01*
X160154865Y-100757118D01*
X160405252Y-100653661D01*
X160596987Y-100462259D01*
X160700882Y-100212054D01*
X160701118Y-99941135D01*
X160597661Y-99690748D01*
X160406259Y-99499013D01*
X160156054Y-99395118D01*
X159885135Y-99394882D01*
X159634748Y-99498339D01*
X159562962Y-99570000D01*
X144475123Y-99570000D01*
X144404259Y-99499013D01*
X144154054Y-99395118D01*
X143883135Y-99394882D01*
X143632748Y-99498339D01*
X143441013Y-99689741D01*
X143337118Y-99939946D01*
X143336882Y-100210865D01*
X134364000Y-100210865D01*
X134364000Y-92980000D01*
X135771536Y-92980000D01*
X135771536Y-94980000D01*
X135798103Y-95121190D01*
X135881546Y-95250865D01*
X136008866Y-95337859D01*
X136160000Y-95368464D01*
X138160000Y-95368464D01*
X138301190Y-95341897D01*
X138430865Y-95258454D01*
X138517859Y-95131134D01*
X138548464Y-94980000D01*
X138548464Y-94781187D01*
X138916705Y-95150072D01*
X139194000Y-95265215D01*
X139194000Y-95758000D01*
X139232517Y-95951638D01*
X139342204Y-96115796D01*
X140104204Y-96877796D01*
X140268362Y-96987483D01*
X140462000Y-97026000D01*
X142284408Y-97026000D01*
X143590969Y-98332561D01*
X143590882Y-98432865D01*
X143694339Y-98683252D01*
X143885741Y-98874987D01*
X144135946Y-98978882D01*
X144406865Y-98979118D01*
X144657252Y-98875661D01*
X144848987Y-98684259D01*
X144952882Y-98434054D01*
X144953118Y-98163135D01*
X144849661Y-97912748D01*
X144658259Y-97721013D01*
X144408054Y-97617118D01*
X144306622Y-97617030D01*
X144144481Y-97454889D01*
X144406865Y-97455118D01*
X144657252Y-97351661D01*
X144848987Y-97160259D01*
X144952882Y-96910054D01*
X144952970Y-96808622D01*
X146589569Y-95172023D01*
X147044097Y-95360759D01*
X147593493Y-95361239D01*
X148101251Y-95151437D01*
X148490072Y-94763295D01*
X148589985Y-94522676D01*
X148688563Y-94761251D01*
X149076705Y-95150072D01*
X149584097Y-95360759D01*
X150133493Y-95361239D01*
X150641251Y-95151437D01*
X151030072Y-94763295D01*
X151129985Y-94522676D01*
X151228563Y-94761251D01*
X151616705Y-95150072D01*
X152124097Y-95360759D01*
X152673493Y-95361239D01*
X153181251Y-95151437D01*
X153570072Y-94763295D01*
X153780759Y-94255903D01*
X153781239Y-93706507D01*
X153571437Y-93198749D01*
X153183295Y-92809928D01*
X152675903Y-92599241D01*
X152126507Y-92598761D01*
X151618749Y-92808563D01*
X151229928Y-93196705D01*
X151130015Y-93437324D01*
X151031437Y-93198749D01*
X150643295Y-92809928D01*
X150135903Y-92599241D01*
X149586507Y-92598761D01*
X149078749Y-92808563D01*
X148689928Y-93196705D01*
X148590015Y-93437324D01*
X148491437Y-93198749D01*
X148103295Y-92809928D01*
X147595903Y-92599241D01*
X147046507Y-92598761D01*
X146538749Y-92808563D01*
X146149928Y-93196705D01*
X146050015Y-93437324D01*
X145951437Y-93198749D01*
X145563295Y-92809928D01*
X145055903Y-92599241D01*
X144506507Y-92598761D01*
X143998749Y-92808563D01*
X143609928Y-93196705D01*
X143510015Y-93437324D01*
X143411437Y-93198749D01*
X143023295Y-92809928D01*
X142515903Y-92599241D01*
X141966507Y-92598761D01*
X141458749Y-92808563D01*
X141069928Y-93196705D01*
X140970015Y-93437324D01*
X140871437Y-93198749D01*
X140483295Y-92809928D01*
X139975903Y-92599241D01*
X139426507Y-92598761D01*
X138918749Y-92808563D01*
X138548464Y-93178201D01*
X138548464Y-92980000D01*
X138521897Y-92838810D01*
X138438454Y-92709135D01*
X138311134Y-92622141D01*
X138160000Y-92591536D01*
X136160000Y-92591536D01*
X136018810Y-92618103D01*
X135889135Y-92701546D01*
X135802141Y-92828866D01*
X135771536Y-92980000D01*
X134364000Y-92980000D01*
X134364000Y-90304865D01*
X151464882Y-90304865D01*
X151568339Y-90555252D01*
X151759741Y-90746987D01*
X152009946Y-90850882D01*
X152111378Y-90850970D01*
X153242969Y-91982561D01*
X153242882Y-92082865D01*
X153346339Y-92333252D01*
X153537741Y-92524987D01*
X153787946Y-92628882D01*
X154058865Y-92629118D01*
X154309252Y-92525661D01*
X154500987Y-92334259D01*
X154604882Y-92084054D01*
X154605118Y-91813135D01*
X154501661Y-91562748D01*
X154310259Y-91371013D01*
X154060054Y-91267118D01*
X153958622Y-91267030D01*
X152827031Y-90135439D01*
X152827118Y-90035135D01*
X152723661Y-89784748D01*
X152532259Y-89593013D01*
X152282054Y-89489118D01*
X152011135Y-89488882D01*
X151760748Y-89592339D01*
X151569013Y-89783741D01*
X151465118Y-90033946D01*
X151464882Y-90304865D01*
X134364000Y-90304865D01*
X134364000Y-87510865D01*
X155528882Y-87510865D01*
X155632339Y-87761252D01*
X155823741Y-87952987D01*
X156073946Y-88056882D01*
X156344865Y-88057118D01*
X156404773Y-88032365D01*
X159338969Y-90966561D01*
X159338882Y-91066865D01*
X159442339Y-91317252D01*
X159633741Y-91508987D01*
X159883946Y-91612882D01*
X160154865Y-91613118D01*
X160405252Y-91509661D01*
X160596987Y-91318259D01*
X160700882Y-91068054D01*
X160701118Y-90797135D01*
X160597661Y-90546748D01*
X160406259Y-90355013D01*
X160156054Y-90251118D01*
X160054622Y-90251030D01*
X157060457Y-87256865D01*
X159084882Y-87256865D01*
X159188339Y-87507252D01*
X159379741Y-87698987D01*
X159629946Y-87802882D01*
X159731378Y-87802970D01*
X161624969Y-89696561D01*
X161624882Y-89796865D01*
X161728339Y-90047252D01*
X161919741Y-90238987D01*
X162169946Y-90342882D01*
X162440865Y-90343118D01*
X162691252Y-90239661D01*
X162882987Y-90048259D01*
X162986882Y-89798054D01*
X162987118Y-89527135D01*
X162883661Y-89276748D01*
X162692259Y-89085013D01*
X162442054Y-88981118D01*
X162340622Y-88981030D01*
X160447031Y-87087439D01*
X160447118Y-86987135D01*
X160343661Y-86736748D01*
X160152259Y-86545013D01*
X159902054Y-86441118D01*
X159631135Y-86440882D01*
X159380748Y-86544339D01*
X159189013Y-86735741D01*
X159085118Y-86985946D01*
X159084882Y-87256865D01*
X157060457Y-87256865D01*
X156821796Y-87018204D01*
X156790314Y-86997168D01*
X156787661Y-86990748D01*
X156596259Y-86799013D01*
X156346054Y-86695118D01*
X156075135Y-86694882D01*
X155824748Y-86798339D01*
X155633013Y-86989741D01*
X155529118Y-87239946D01*
X155528882Y-87510865D01*
X134364000Y-87510865D01*
X134364000Y-75901592D01*
X136478889Y-73786703D01*
X136478882Y-73794865D01*
X136582339Y-74045252D01*
X136773741Y-74236987D01*
X137023946Y-74340882D01*
X137125378Y-74340970D01*
X139194000Y-76409592D01*
X139194000Y-77454831D01*
X138918749Y-77568563D01*
X138529928Y-77956705D01*
X138319241Y-78464097D01*
X138318761Y-79013493D01*
X138528563Y-79521251D01*
X138916705Y-79910072D01*
X139424097Y-80120759D01*
X139973493Y-80121239D01*
X140481251Y-79911437D01*
X140870072Y-79523295D01*
X140969985Y-79282676D01*
X141068563Y-79521251D01*
X141456705Y-79910072D01*
X141964097Y-80120759D01*
X142513493Y-80121239D01*
X143021251Y-79911437D01*
X143410072Y-79523295D01*
X143509985Y-79282676D01*
X143608563Y-79521251D01*
X143996705Y-79910072D01*
X144504097Y-80120759D01*
X145053493Y-80121239D01*
X145561251Y-79911437D01*
X145950072Y-79523295D01*
X146049985Y-79282676D01*
X146148563Y-79521251D01*
X146536705Y-79910072D01*
X147044097Y-80120759D01*
X147593493Y-80121239D01*
X148101251Y-79911437D01*
X148490072Y-79523295D01*
X148589985Y-79282676D01*
X148688563Y-79521251D01*
X149076705Y-79910072D01*
X149584097Y-80120759D01*
X150133493Y-80121239D01*
X150641251Y-79911437D01*
X151030072Y-79523295D01*
X151145215Y-79246000D01*
X157734000Y-79246000D01*
X157927638Y-79207483D01*
X158091796Y-79097796D01*
X162594561Y-74595031D01*
X162694865Y-74595118D01*
X162945252Y-74491661D01*
X163136987Y-74300259D01*
X163240882Y-74050054D01*
X163241118Y-73779135D01*
X163137661Y-73528748D01*
X162946259Y-73337013D01*
X162696054Y-73233118D01*
X162425135Y-73232882D01*
X162174748Y-73336339D01*
X161983013Y-73527741D01*
X161879118Y-73777946D01*
X161879030Y-73879378D01*
X157524408Y-78234000D01*
X151145169Y-78234000D01*
X151031437Y-77958749D01*
X150643295Y-77569928D01*
X150135903Y-77359241D01*
X149586507Y-77358761D01*
X149078749Y-77568563D01*
X148689928Y-77956705D01*
X148590015Y-78197324D01*
X148491437Y-77958749D01*
X148103295Y-77569928D01*
X147826000Y-77454785D01*
X147826000Y-76409592D01*
X149894561Y-74341031D01*
X149994865Y-74341118D01*
X150245252Y-74237661D01*
X150436987Y-74046259D01*
X150540882Y-73796054D01*
X150541118Y-73525135D01*
X150437661Y-73274748D01*
X150246259Y-73083013D01*
X149996054Y-72979118D01*
X149725135Y-72978882D01*
X149474748Y-73082339D01*
X149283013Y-73273741D01*
X149179118Y-73523946D01*
X149179030Y-73625378D01*
X146962204Y-75842204D01*
X146852517Y-76006362D01*
X146814000Y-76200000D01*
X146814000Y-77454831D01*
X146538749Y-77568563D01*
X146149928Y-77956705D01*
X146050015Y-78197324D01*
X145951437Y-77958749D01*
X145563295Y-77569928D01*
X145055903Y-77359241D01*
X144506507Y-77358761D01*
X143998749Y-77568563D01*
X143609928Y-77956705D01*
X143510015Y-78197324D01*
X143411437Y-77958749D01*
X143023295Y-77569928D01*
X142515903Y-77359241D01*
X141966507Y-77358761D01*
X141458749Y-77568563D01*
X141069928Y-77956705D01*
X140970015Y-78197324D01*
X140871437Y-77958749D01*
X140483295Y-77569928D01*
X140206000Y-77454785D01*
X140206000Y-76200000D01*
X140167483Y-76006362D01*
X140057796Y-75842204D01*
X139826481Y-75610889D01*
X140088865Y-75611118D01*
X140339252Y-75507661D01*
X140530987Y-75316259D01*
X140634882Y-75066054D01*
X140634970Y-74964622D01*
X150852796Y-64746796D01*
X150962483Y-64582638D01*
X151001000Y-64389000D01*
X151001000Y-61987316D01*
X184073657Y-61987316D01*
X184374611Y-62715680D01*
X184931389Y-63273431D01*
X185659226Y-63575655D01*
X186447316Y-63576343D01*
X187175680Y-63275389D01*
X187733431Y-62718611D01*
X188035655Y-61990774D01*
X188036343Y-61202684D01*
X187735389Y-60474320D01*
X187178611Y-59916569D01*
X186450774Y-59614345D01*
X185662684Y-59613657D01*
X184934320Y-59914611D01*
X184376569Y-60471389D01*
X184074345Y-61199226D01*
X184073657Y-61987316D01*
X151001000Y-61987316D01*
X151001000Y-61729464D01*
X151358600Y-61729464D01*
X151499790Y-61702897D01*
X151629465Y-61619454D01*
X151716459Y-61492134D01*
X151747064Y-61341000D01*
X151747064Y-59309000D01*
X151720497Y-59167810D01*
X151637054Y-59038135D01*
X151509734Y-58951141D01*
X151358600Y-58920536D01*
X149631400Y-58920536D01*
X149490210Y-58947103D01*
X149360535Y-59030546D01*
X149273541Y-59157866D01*
X149242936Y-59309000D01*
X149242936Y-61341000D01*
X149269503Y-61482190D01*
X149352946Y-61611865D01*
X149480266Y-61698859D01*
X149631400Y-61729464D01*
X149989000Y-61729464D01*
X149989000Y-64179408D01*
X139919439Y-74248969D01*
X139819135Y-74248882D01*
X139568748Y-74352339D01*
X139377013Y-74543741D01*
X139273118Y-74793946D01*
X139272889Y-75057297D01*
X137841031Y-73625439D01*
X137841118Y-73525135D01*
X137737661Y-73274748D01*
X137546259Y-73083013D01*
X137296054Y-72979118D01*
X137286482Y-72979110D01*
X148312796Y-61952796D01*
X148330239Y-61926690D01*
X148422483Y-61788638D01*
X148451875Y-61640873D01*
X148835065Y-61384834D01*
X149104860Y-60981057D01*
X149199600Y-60504769D01*
X149199600Y-60145231D01*
X149104860Y-59668943D01*
X148835065Y-59265166D01*
X148431288Y-58995371D01*
X147955000Y-58900631D01*
X147478712Y-58995371D01*
X147074935Y-59265166D01*
X146805140Y-59668943D01*
X146710400Y-60145231D01*
X146710400Y-60504769D01*
X146805140Y-60981057D01*
X147074935Y-61384834D01*
X147299515Y-61534893D01*
X133500204Y-75334204D01*
X133390517Y-75498362D01*
X133352000Y-75692000D01*
X133352000Y-99876969D01*
X133228259Y-99753013D01*
X132978054Y-99649118D01*
X132707135Y-99648882D01*
X132456748Y-99752339D01*
X132384962Y-99824000D01*
X128977031Y-99824000D01*
X129100987Y-99700259D01*
X129204882Y-99450054D01*
X129205118Y-99179135D01*
X129101661Y-98928748D01*
X129030000Y-98856962D01*
X129030000Y-81489592D01*
X132368561Y-78151031D01*
X132468865Y-78151118D01*
X132719252Y-78047661D01*
X132910987Y-77856259D01*
X133014882Y-77606054D01*
X133015118Y-77335135D01*
X132911661Y-77084748D01*
X132720259Y-76893013D01*
X132470054Y-76789118D01*
X132199135Y-76788882D01*
X131948748Y-76892339D01*
X131757013Y-77083741D01*
X131653118Y-77333946D01*
X131653030Y-77435378D01*
X128166204Y-80922204D01*
X128056517Y-81086362D01*
X128018000Y-81280000D01*
X128018000Y-98856877D01*
X127947013Y-98927741D01*
X127843118Y-99177946D01*
X127842882Y-99448865D01*
X127946339Y-99699252D01*
X128070870Y-99824000D01*
X125929031Y-99824000D01*
X126052987Y-99700259D01*
X126156882Y-99450054D01*
X126157118Y-99179135D01*
X126053661Y-98928748D01*
X125982000Y-98856962D01*
X125982000Y-82505592D01*
X145772796Y-62714796D01*
X145882483Y-62550638D01*
X145921000Y-62357000D01*
X145921000Y-61634776D01*
X146295065Y-61384834D01*
X146564860Y-60981057D01*
X146659600Y-60504769D01*
X146659600Y-60145231D01*
X146564860Y-59668943D01*
X146295065Y-59265166D01*
X145891288Y-58995371D01*
X145415000Y-58900631D01*
X144938712Y-58995371D01*
X144534935Y-59265166D01*
X144265140Y-59668943D01*
X144170400Y-60145231D01*
X144170400Y-60504769D01*
X144265140Y-60981057D01*
X144534935Y-61384834D01*
X144909000Y-61634776D01*
X144909000Y-62147408D01*
X128443111Y-78613297D01*
X128443118Y-78605135D01*
X128339661Y-78354748D01*
X128148259Y-78163013D01*
X127898054Y-78059118D01*
X127627135Y-78058882D01*
X127376748Y-78162339D01*
X127304962Y-78234000D01*
X125425123Y-78234000D01*
X125354259Y-78163013D01*
X125104054Y-78059118D01*
X124833135Y-78058882D01*
X124582748Y-78162339D01*
X124391013Y-78353741D01*
X124287118Y-78603946D01*
X124286882Y-78874865D01*
X124390339Y-79125252D01*
X124581741Y-79316987D01*
X124831946Y-79420882D01*
X125102865Y-79421118D01*
X125353252Y-79317661D01*
X125425038Y-79246000D01*
X127304877Y-79246000D01*
X127375741Y-79316987D01*
X127625946Y-79420882D01*
X127635518Y-79420890D01*
X125118204Y-81938204D01*
X125008517Y-82102362D01*
X124970000Y-82296000D01*
X124970000Y-98856877D01*
X124899013Y-98927741D01*
X124795118Y-99177946D01*
X124794882Y-99448865D01*
X124883334Y-99662937D01*
X124850054Y-99649118D01*
X124579135Y-99648882D01*
X124328748Y-99752339D01*
X124137013Y-99943741D01*
X124033118Y-100193946D01*
X124032882Y-100464865D01*
X123950000Y-100464865D01*
X123950000Y-78187592D01*
X125177592Y-76960000D01*
X126746000Y-76960000D01*
X126939638Y-76921483D01*
X127103796Y-76811796D01*
X142316137Y-61599455D01*
X142398712Y-61654629D01*
X142875000Y-61749369D01*
X143351288Y-61654629D01*
X143755065Y-61384834D01*
X144024860Y-60981057D01*
X144119600Y-60504769D01*
X144119600Y-60145231D01*
X144024860Y-59668943D01*
X143755065Y-59265166D01*
X143351288Y-58995371D01*
X142875000Y-58900631D01*
X142398712Y-58995371D01*
X141994935Y-59265166D01*
X141725140Y-59668943D01*
X141630400Y-60145231D01*
X141630400Y-60504769D01*
X141688343Y-60796065D01*
X141447625Y-61036783D01*
X141484860Y-60981057D01*
X141579600Y-60504769D01*
X141579600Y-60145231D01*
X141484860Y-59668943D01*
X141215065Y-59265166D01*
X140811288Y-58995371D01*
X140335000Y-58900631D01*
X139858712Y-58995371D01*
X139454935Y-59265166D01*
X139185140Y-59668943D01*
X139090400Y-60145231D01*
X139090400Y-60504769D01*
X139148343Y-60796065D01*
X138907625Y-61036783D01*
X138944860Y-60981057D01*
X139039600Y-60504769D01*
X139039600Y-60145231D01*
X138944860Y-59668943D01*
X138675065Y-59265166D01*
X138271288Y-58995371D01*
X137795000Y-58900631D01*
X137318712Y-58995371D01*
X136914935Y-59265166D01*
X136645140Y-59668943D01*
X136550400Y-60145231D01*
X136550400Y-60504769D01*
X136608343Y-60796065D01*
X136367625Y-61036783D01*
X136404860Y-60981057D01*
X136499600Y-60504769D01*
X136499600Y-60145231D01*
X136404860Y-59668943D01*
X136135065Y-59265166D01*
X135731288Y-58995371D01*
X135255000Y-58900631D01*
X134778712Y-58995371D01*
X134374935Y-59265166D01*
X134105140Y-59668943D01*
X134102296Y-59683243D01*
X134006954Y-59410680D01*
X133617036Y-58974268D01*
X133089791Y-58720291D01*
X133074026Y-58717642D01*
X132842000Y-58838783D01*
X132842000Y-60198000D01*
X132862000Y-60198000D01*
X132862000Y-60452000D01*
X132842000Y-60452000D01*
X132842000Y-61811217D01*
X133074026Y-61932358D01*
X133089791Y-61929709D01*
X133617036Y-61675732D01*
X134006954Y-61239320D01*
X134102296Y-60966757D01*
X134105140Y-60981057D01*
X134374935Y-61384834D01*
X134778712Y-61654629D01*
X135255000Y-61749369D01*
X135731288Y-61654629D01*
X135787014Y-61617394D01*
X120800204Y-76604204D01*
X120690517Y-76768362D01*
X120652000Y-76962000D01*
X120652000Y-118668877D01*
X120581013Y-118739741D01*
X120477118Y-118989946D01*
X120476882Y-119260865D01*
X114423000Y-119260865D01*
X114423000Y-115318182D01*
X114472882Y-115198054D01*
X114473118Y-114927135D01*
X114369661Y-114676748D01*
X114178259Y-114485013D01*
X113928054Y-114381118D01*
X113657135Y-114380882D01*
X113406748Y-114484339D01*
X113215013Y-114675741D01*
X113111118Y-114925946D01*
X113110882Y-115196865D01*
X106041000Y-115196865D01*
X106041000Y-108204000D01*
X105992968Y-107962527D01*
X105915243Y-107846204D01*
X105856184Y-107757815D01*
X105529333Y-107430965D01*
X105479661Y-107310748D01*
X105288259Y-107119013D01*
X105038054Y-107015118D01*
X104767135Y-107014882D01*
X104516748Y-107118339D01*
X104325013Y-107309741D01*
X104221118Y-107559946D01*
X104220882Y-107830865D01*
X104324339Y-108081252D01*
X104515741Y-108272987D01*
X104636949Y-108323317D01*
X104779000Y-108465369D01*
X104779000Y-117786490D01*
X104530054Y-117683118D01*
X104259135Y-117682882D01*
X104008748Y-117786339D01*
X103817013Y-117977741D01*
X103713118Y-118227946D01*
X103713030Y-118329378D01*
X103168408Y-118874000D01*
X100787123Y-118874000D01*
X100716259Y-118803013D01*
X100466054Y-118699118D01*
X100195135Y-118698882D01*
X99944748Y-118802339D01*
X99753013Y-118993741D01*
X99649118Y-119243946D01*
X99648882Y-119514865D01*
X96647542Y-119514865D01*
X96674369Y-119380000D01*
X96579629Y-118903712D01*
X96309834Y-118499935D01*
X95906057Y-118230140D01*
X95429769Y-118135400D01*
X95070231Y-118135400D01*
X94593943Y-118230140D01*
X94190166Y-118499935D01*
X93920371Y-118903712D01*
X93825631Y-119380000D01*
X92531000Y-119380000D01*
X92531000Y-116840000D01*
X93825631Y-116840000D01*
X93920371Y-117316288D01*
X94190166Y-117720065D01*
X94593943Y-117989860D01*
X95070231Y-118084600D01*
X95429769Y-118084600D01*
X95906057Y-117989860D01*
X96309834Y-117720065D01*
X96579629Y-117316288D01*
X96674369Y-116840000D01*
X96579629Y-116363712D01*
X96309834Y-115959935D01*
X95906057Y-115690140D01*
X95429769Y-115595400D01*
X95070231Y-115595400D01*
X94593943Y-115690140D01*
X94190166Y-115959935D01*
X93920371Y-116363712D01*
X93825631Y-116840000D01*
X92531000Y-116840000D01*
X92531000Y-112119026D01*
X93642642Y-112119026D01*
X93645291Y-112134791D01*
X93899268Y-112662036D01*
X94335680Y-113051954D01*
X94608243Y-113147296D01*
X94593943Y-113150140D01*
X94190166Y-113419935D01*
X93920371Y-113823712D01*
X93825631Y-114300000D01*
X93920371Y-114776288D01*
X94190166Y-115180065D01*
X94593943Y-115449860D01*
X95070231Y-115544600D01*
X95429769Y-115544600D01*
X95906057Y-115449860D01*
X96309834Y-115180065D01*
X96579629Y-114776288D01*
X96674369Y-114300000D01*
X96579629Y-113823712D01*
X96309834Y-113419935D01*
X95906057Y-113150140D01*
X95891757Y-113147296D01*
X96164320Y-113051954D01*
X96600732Y-112662036D01*
X96854709Y-112134791D01*
X96857358Y-112119026D01*
X96736217Y-111887000D01*
X95377000Y-111887000D01*
X95377000Y-111907000D01*
X95123000Y-111907000D01*
X95123000Y-111887000D01*
X93763783Y-111887000D01*
X93642642Y-112119026D01*
X92531000Y-112119026D01*
X92531000Y-111400974D01*
X93642642Y-111400974D01*
X93763783Y-111633000D01*
X95123000Y-111633000D01*
X95123000Y-110419076D01*
X95377000Y-110419076D01*
X95377000Y-111633000D01*
X96736217Y-111633000D01*
X96857358Y-111400974D01*
X96854709Y-111385209D01*
X96600732Y-110857964D01*
X96164320Y-110468046D01*
X95611913Y-110274816D01*
X95377000Y-110419076D01*
X95123000Y-110419076D01*
X94888087Y-110274816D01*
X94335680Y-110468046D01*
X93899268Y-110857964D01*
X93645291Y-111385209D01*
X93642642Y-111400974D01*
X92531000Y-111400974D01*
X92531000Y-104546400D01*
X93845536Y-104546400D01*
X93845536Y-106273600D01*
X93872103Y-106414790D01*
X93955546Y-106544465D01*
X94082866Y-106631459D01*
X94234000Y-106662064D01*
X96266000Y-106662064D01*
X96407190Y-106635497D01*
X96536865Y-106552054D01*
X96623859Y-106424734D01*
X96654464Y-106273600D01*
X96654464Y-104546400D01*
X96627897Y-104405210D01*
X96544454Y-104275535D01*
X96417134Y-104188541D01*
X96266000Y-104157936D01*
X94234000Y-104157936D01*
X94092810Y-104184503D01*
X93963135Y-104267946D01*
X93876141Y-104395266D01*
X93845536Y-104546400D01*
X92531000Y-104546400D01*
X92531000Y-100689026D01*
X93642642Y-100689026D01*
X93645291Y-100704791D01*
X93899268Y-101232036D01*
X94335680Y-101621954D01*
X94608243Y-101717296D01*
X94593943Y-101720140D01*
X94190166Y-101989935D01*
X93920371Y-102393712D01*
X93825631Y-102870000D01*
X93920371Y-103346288D01*
X94190166Y-103750065D01*
X94593943Y-104019860D01*
X95070231Y-104114600D01*
X95429769Y-104114600D01*
X95906057Y-104019860D01*
X96309834Y-103750065D01*
X96579629Y-103346288D01*
X96674369Y-102870000D01*
X96579629Y-102393712D01*
X96309834Y-101989935D01*
X95906057Y-101720140D01*
X95891757Y-101717296D01*
X96164320Y-101621954D01*
X96600732Y-101232036D01*
X96854709Y-100704791D01*
X96857358Y-100689026D01*
X96736217Y-100457000D01*
X95377000Y-100457000D01*
X95377000Y-100477000D01*
X95123000Y-100477000D01*
X95123000Y-100457000D01*
X93763783Y-100457000D01*
X93642642Y-100689026D01*
X92531000Y-100689026D01*
X92531000Y-99970974D01*
X93642642Y-99970974D01*
X93763783Y-100203000D01*
X95123000Y-100203000D01*
X95123000Y-100183000D01*
X95377000Y-100183000D01*
X95377000Y-100203000D01*
X96736217Y-100203000D01*
X96857358Y-99970974D01*
X96854709Y-99955209D01*
X96600732Y-99427964D01*
X96164320Y-99038046D01*
X95891757Y-98942704D01*
X95906057Y-98939860D01*
X96309834Y-98670065D01*
X96579629Y-98266288D01*
X96674369Y-97790000D01*
X96579629Y-97313712D01*
X96309834Y-96909935D01*
X95906057Y-96640140D01*
X95429769Y-96545400D01*
X95070231Y-96545400D01*
X94593943Y-96640140D01*
X94190166Y-96909935D01*
X93920371Y-97313712D01*
X93825631Y-97790000D01*
X93920371Y-98266288D01*
X94190166Y-98670065D01*
X94593943Y-98939860D01*
X94608243Y-98942704D01*
X94335680Y-99038046D01*
X93899268Y-99427964D01*
X93645291Y-99955209D01*
X93642642Y-99970974D01*
X92531000Y-99970974D01*
X92531000Y-92980000D01*
X112911536Y-92980000D01*
X112911536Y-94980000D01*
X112938103Y-95121190D01*
X113021546Y-95250865D01*
X113148866Y-95337859D01*
X113300000Y-95368464D01*
X115300000Y-95368464D01*
X115441190Y-95341897D01*
X115570865Y-95258454D01*
X115657859Y-95131134D01*
X115688464Y-94980000D01*
X115688464Y-92980000D01*
X115661897Y-92838810D01*
X115578454Y-92709135D01*
X115451134Y-92622141D01*
X115300000Y-92591536D01*
X115101187Y-92591536D01*
X115470072Y-92223295D01*
X115680759Y-91715903D01*
X115681239Y-91166507D01*
X115471437Y-90658749D01*
X115083295Y-90269928D01*
X114575903Y-90059241D01*
X114026507Y-90058761D01*
X113518749Y-90268563D01*
X113129928Y-90656705D01*
X112919241Y-91164097D01*
X112918761Y-91713493D01*
X113128563Y-92221251D01*
X113498201Y-92591536D01*
X113300000Y-92591536D01*
X113158810Y-92618103D01*
X113029135Y-92701546D01*
X112942141Y-92828866D01*
X112911536Y-92980000D01*
X92531000Y-92980000D01*
X92531000Y-76024128D01*
X96540176Y-76024128D01*
X96666358Y-76329511D01*
X96899800Y-76563361D01*
X97204963Y-76690075D01*
X97535388Y-76690364D01*
X97840771Y-76564182D01*
X98074621Y-76330740D01*
X98201335Y-76025577D01*
X98201624Y-75695152D01*
X98075442Y-75389769D01*
X97842000Y-75155919D01*
X97536837Y-75029205D01*
X97206412Y-75028916D01*
X96901029Y-75155098D01*
X96667179Y-75388540D01*
X96540465Y-75693703D01*
X96540176Y-76024128D01*
X92531000Y-76024128D01*
X92531000Y-71624848D01*
X96540176Y-71624848D01*
X96666358Y-71930231D01*
X96899800Y-72164081D01*
X97204963Y-72290795D01*
X97535388Y-72291084D01*
X97840771Y-72164902D01*
X98074621Y-71931460D01*
X98201335Y-71626297D01*
X98201624Y-71295872D01*
X98075442Y-70990489D01*
X97842000Y-70756639D01*
X97536837Y-70629925D01*
X97206412Y-70629636D01*
X96901029Y-70755818D01*
X96667179Y-70989260D01*
X96540465Y-71294423D01*
X96540176Y-71624848D01*
X92531000Y-71624848D01*
X92531000Y-65412865D01*
X108538882Y-65412865D01*
X108642339Y-65663252D01*
X108833741Y-65854987D01*
X109083946Y-65958882D01*
X109354865Y-65959118D01*
X109605252Y-65855661D01*
X109796987Y-65664259D01*
X109847318Y-65543050D01*
X113160368Y-62230000D01*
X115571017Y-62230000D01*
X115665757Y-62706288D01*
X115935552Y-63110065D01*
X116339329Y-63379860D01*
X116815617Y-63474600D01*
X116864383Y-63474600D01*
X117340671Y-63379860D01*
X117744448Y-63110065D01*
X118014243Y-62706288D01*
X118108983Y-62230000D01*
X118111017Y-62230000D01*
X118205757Y-62706288D01*
X118475552Y-63110065D01*
X118879329Y-63379860D01*
X119355617Y-63474600D01*
X119404383Y-63474600D01*
X119880671Y-63379860D01*
X120284448Y-63110065D01*
X120442939Y-62872865D01*
X122000882Y-62872865D01*
X122051000Y-62994161D01*
X122051000Y-65275818D01*
X122001118Y-65395946D01*
X122000882Y-65666865D01*
X122104339Y-65917252D01*
X122295741Y-66108987D01*
X122545946Y-66212882D01*
X122816865Y-66213118D01*
X123067252Y-66109661D01*
X123258987Y-65918259D01*
X123362882Y-65668054D01*
X123363118Y-65397135D01*
X123313000Y-65275839D01*
X123313000Y-62994182D01*
X123362882Y-62874054D01*
X123363118Y-62603135D01*
X123259661Y-62352748D01*
X123068259Y-62161013D01*
X122818054Y-62057118D01*
X122547135Y-62056882D01*
X122296748Y-62160339D01*
X122105013Y-62351741D01*
X122001118Y-62601946D01*
X122000882Y-62872865D01*
X120442939Y-62872865D01*
X120554243Y-62706288D01*
X120648983Y-62230000D01*
X120554243Y-61753712D01*
X120284448Y-61349935D01*
X119880671Y-61080140D01*
X119404383Y-60985400D01*
X119355617Y-60985400D01*
X118879329Y-61080140D01*
X118475552Y-61349935D01*
X118205757Y-61753712D01*
X118111017Y-62230000D01*
X118108983Y-62230000D01*
X118014243Y-61753712D01*
X117744448Y-61349935D01*
X117340671Y-61080140D01*
X116864383Y-60985400D01*
X116815617Y-60985400D01*
X116339329Y-61080140D01*
X115935552Y-61349935D01*
X115665757Y-61753712D01*
X115571017Y-62230000D01*
X113160368Y-62230000D01*
X115069369Y-60321000D01*
X115587936Y-60321000D01*
X115587936Y-60553600D01*
X115614503Y-60694790D01*
X115697946Y-60824465D01*
X115825266Y-60911459D01*
X115976400Y-60942064D01*
X117703600Y-60942064D01*
X117844790Y-60915497D01*
X117974465Y-60832054D01*
X118061459Y-60704734D01*
X118092064Y-60553600D01*
X118092064Y-59690000D01*
X118111017Y-59690000D01*
X118205757Y-60166288D01*
X118475552Y-60570065D01*
X118879329Y-60839860D01*
X119355617Y-60934600D01*
X119404383Y-60934600D01*
X119880671Y-60839860D01*
X120109572Y-60686913D01*
X131229816Y-60686913D01*
X131423046Y-61239320D01*
X131812964Y-61675732D01*
X132340209Y-61929709D01*
X132355974Y-61932358D01*
X132588000Y-61811217D01*
X132588000Y-60452000D01*
X131374076Y-60452000D01*
X131229816Y-60686913D01*
X120109572Y-60686913D01*
X120284448Y-60570065D01*
X120554243Y-60166288D01*
X120594662Y-59963087D01*
X131229816Y-59963087D01*
X131374076Y-60198000D01*
X132588000Y-60198000D01*
X132588000Y-58838783D01*
X132355974Y-58717642D01*
X132340209Y-58720291D01*
X131812964Y-58974268D01*
X131423046Y-59410680D01*
X131229816Y-59963087D01*
X120594662Y-59963087D01*
X120648983Y-59690000D01*
X120554243Y-59213712D01*
X120284448Y-58809935D01*
X119880671Y-58540140D01*
X119404383Y-58445400D01*
X119355617Y-58445400D01*
X118879329Y-58540140D01*
X118475552Y-58809935D01*
X118205757Y-59213712D01*
X118111017Y-59690000D01*
X118092064Y-59690000D01*
X118092064Y-58826400D01*
X118065497Y-58685210D01*
X117982054Y-58555535D01*
X117854734Y-58468541D01*
X117703600Y-58437936D01*
X115976400Y-58437936D01*
X115835210Y-58464503D01*
X115705535Y-58547946D01*
X115618541Y-58675266D01*
X115587936Y-58826400D01*
X115587936Y-59059000D01*
X114808000Y-59059000D01*
X114606589Y-59099063D01*
X114566526Y-59107032D01*
X114361815Y-59243816D01*
X108954965Y-64650667D01*
X108834748Y-64700339D01*
X108643013Y-64891741D01*
X108539118Y-65141946D01*
X108538882Y-65412865D01*
X92531000Y-65412865D01*
X92531000Y-61987316D01*
X95173657Y-61987316D01*
X95474611Y-62715680D01*
X96031389Y-63273431D01*
X96759226Y-63575655D01*
X97547316Y-63576343D01*
X98275680Y-63275389D01*
X98833431Y-62718611D01*
X99135655Y-61990774D01*
X99135658Y-61986215D01*
X104563390Y-61986215D01*
X104640656Y-62234976D01*
X105187131Y-62432340D01*
X105767535Y-62405553D01*
X106179344Y-62234976D01*
X106256610Y-61986215D01*
X105410000Y-61139605D01*
X104563390Y-61986215D01*
X99135658Y-61986215D01*
X99136343Y-61202684D01*
X98943981Y-60737131D01*
X103937660Y-60737131D01*
X103964447Y-61317535D01*
X104135024Y-61729344D01*
X104383785Y-61806610D01*
X105230395Y-60960000D01*
X105589605Y-60960000D01*
X106436215Y-61806610D01*
X106684976Y-61729344D01*
X106736036Y-61587966D01*
X106736036Y-61785500D01*
X106762603Y-61926690D01*
X106846046Y-62056365D01*
X106973366Y-62143359D01*
X107124500Y-62173964D01*
X108775500Y-62173964D01*
X108916690Y-62147397D01*
X109046365Y-62063954D01*
X109133359Y-61936634D01*
X109163964Y-61785500D01*
X109163964Y-60134500D01*
X109137397Y-59993310D01*
X109053954Y-59863635D01*
X108926634Y-59776641D01*
X108775500Y-59746036D01*
X107124500Y-59746036D01*
X106983310Y-59772603D01*
X106853635Y-59856046D01*
X106766641Y-59983366D01*
X106736036Y-60134500D01*
X106736036Y-60313926D01*
X106684976Y-60190656D01*
X106436215Y-60113390D01*
X105589605Y-60960000D01*
X105230395Y-60960000D01*
X104383785Y-60113390D01*
X104135024Y-60190656D01*
X103937660Y-60737131D01*
X98943981Y-60737131D01*
X98835389Y-60474320D01*
X98295797Y-59933785D01*
X104563390Y-59933785D01*
X105410000Y-60780395D01*
X106256610Y-59933785D01*
X106179344Y-59685024D01*
X105632869Y-59487660D01*
X105052465Y-59514447D01*
X104640656Y-59685024D01*
X104563390Y-59933785D01*
X98295797Y-59933785D01*
X98278611Y-59916569D01*
X97550774Y-59614345D01*
X96762684Y-59613657D01*
X96034320Y-59914611D01*
X95476569Y-60471389D01*
X95174345Y-61199226D01*
X95173657Y-61987316D01*
X92531000Y-61987316D01*
X92531000Y-56971000D01*
X131445000Y-56971000D01*
X131619504Y-56936289D01*
X131767441Y-56837441D01*
X131866289Y-56689504D01*
X131875738Y-56642000D01*
X151334262Y-56642000D01*
X151343711Y-56689504D01*
M02*
