M48
;DRILL file {KiCad 4.0.2+e4-6225~38~ubuntu14.04.1-stable} date sam. 25 juin 2016 18:59:34 CEST
;FORMAT={-:-/ absolute / metric / decimal}
FMAT,2
METRIC,TZ
T1C0.400
T2C0.762
T3C0.800
T4C0.813
T5C1.000
T6C1.001
T7C1.016
T8C0.899
T9C1.499
T10C3.200
%
G90
G05
M71
T1
X100.33Y-119.38
X104.394Y-118.364
X104.902Y-107.696
X109.22Y-65.278
X111.76Y-52.07
X113.792Y-115.062
X113.792Y-122.936
X121.158Y-119.126
X122.174Y-130.302
X122.682Y-62.738
X122.682Y-65.532
X123.444Y-128.778
X124.714Y-100.33
X124.714Y-127.508
X124.968Y-78.74
X125.476Y-99.314
X125.476Y-101.346
X126.238Y-107.696
X126.238Y-116.078
X127.762Y-78.74
X128.524Y-99.314
X128.524Y-101.854
X130.81Y-114.046
X130.81Y-123.952
X132.334Y-77.47
X132.842Y-100.33
X133.858Y-105.156
X134.62Y-118.618
X136.144Y-106.172
X137.16Y-73.66
X138.938Y-117.602
X139.954Y-74.93
X141.478Y-129.032
X142.24Y-132.588
X143.002Y-106.68
X143.002Y-131.318
X143.256Y-118.618
X144.018Y-100.076
X144.272Y-96.774
X144.272Y-98.298
X149.86Y-73.66
X152.146Y-90.17
X153.924Y-91.948
X156.21Y-87.376
X159.258Y-109.728
X159.766Y-87.122
X160.02Y-90.932
X160.02Y-100.076
X160.782Y-117.094
X160.782Y-130.048
X161.036Y-108.204
X162.052Y-106.68
X162.306Y-89.662
X162.56Y-73.914
X163.322Y-81.534
X166.624Y-80.772
X166.624Y-84.582
X169.418Y-80.01
X175.006Y-74.422
T2
X107.315Y-42.443
X107.315Y-44.45
X107.315Y-46.457
T3
X156.21Y-123.289
X156.21Y-128.171
T4
X105.41Y-60.96
X107.95Y-60.96
X113.665Y-40.005
X113.665Y-45.085
X121.285Y-40.005
X121.285Y-45.085
X125.73Y-40.005
X125.73Y-45.085
X133.35Y-40.005
X133.35Y-45.085
X137.795Y-40.005
X137.795Y-45.085
X145.415Y-40.005
X145.415Y-45.085
X149.86Y-40.005
X149.86Y-45.085
X157.48Y-40.005
X157.48Y-45.085
X161.925Y-40.005
X161.925Y-45.085
X169.545Y-40.005
X169.545Y-45.085
X181.61Y-111.76
X181.61Y-119.38
X186.69Y-111.76
X186.69Y-119.38
T5
X137.16Y-93.98
X139.7Y-78.74
X139.7Y-93.98
X142.24Y-78.74
X142.24Y-93.98
X144.78Y-78.74
X144.78Y-93.98
X147.32Y-78.74
X147.32Y-93.98
X149.86Y-78.74
X149.86Y-93.98
X152.4Y-93.98
T6
X114.3Y-91.44
X114.3Y-93.98
X182.88Y-80.01
X182.88Y-90.17
T7
X95.25Y-97.79
X95.25Y-100.33
X95.25Y-102.87
X95.25Y-105.41
X95.25Y-111.76
X95.25Y-114.3
X95.25Y-116.84
X95.25Y-119.38
X95.25Y-121.92
X105.41Y-128.27
X105.41Y-130.81
X107.95Y-128.27
X107.95Y-130.81
X110.49Y-128.27
X110.49Y-130.81
X116.84Y-59.69
X116.84Y-62.23
X116.84Y-128.27
X116.84Y-130.81
X119.38Y-59.69
X119.38Y-62.23
X119.38Y-128.27
X119.38Y-130.81
X132.715Y-50.165
X132.715Y-60.325
X135.255Y-50.165
X135.255Y-60.325
X137.795Y-50.165
X137.795Y-60.325
X140.335Y-50.165
X140.335Y-60.325
X142.875Y-50.165
X142.875Y-60.325
X145.415Y-50.165
X145.415Y-60.325
X147.955Y-50.165
X147.955Y-60.325
X150.495Y-50.165
X150.495Y-60.325
T8
X97.371Y-71.46
X97.371Y-75.86
T9
X107.315Y-40.335
X107.315Y-48.565
T10
X97.155Y-61.595
X97.155Y-130.175
X98.425Y-45.085
X184.785Y-45.085
X186.055Y-61.595
X186.055Y-130.175
T0
M30
